<svg width="220" height="220" viewBox="0 0 220 220" fill="none" xmlns="http://www.w3.org/2000/svg">
<path d="M110.011 207.683L153.594 196.677C178.47 176.02 194.315 144.863 194.315 110.001C194.315 56.2281 156.627 11.2582 106.224 0.0644531C47.2214 2.05434 0 50.5128 0 110C0 140.556 12.4609 168.2 32.5755 188.133L110.011 207.683Z" fill="#F7F7F7"/>
<path d="M192.033 110C192.033 146.057 174.682 178.059 147.876 198.12L187.421 188.134C207.537 168.2 220 140.557 220 110C220 49.2486 170.751 0 110 0C105.263 0 100.596 0.299922 96.0166 0.880859C150.165 7.7507 192.033 53.9859 192.033 110Z" fill="#F6F6F6"/>
<path d="M137.337 41.6592C137.337 36.0411 132.783 31.4868 127.165 31.4868H92.11C79.1803 31.4868 68.6985 41.9686 68.6985 54.8983V80.8914H151.288V55.267C151.288 49.6488 146.734 45.0946 141.116 45.0946H140.773C138.875 45.0946 137.337 43.5567 137.337 41.6592Z" fill="#E1E1E1"/>
<path d="M182.636 159.996C179.947 157.34 176.62 155.286 172.844 154.09L142.813 144.582L110.007 143.429L77.1873 144.582L47.156 154.09C36.9964 157.307 30.0918 166.735 30.0918 177.392V185.596C49.3371 205.932 76.2621 218.926 106.225 219.937C139.796 212.48 167.726 190.041 182.636 159.996Z" fill="#DFDFDF"/>
<path d="M112.491 218.354C119.146 205.14 136.477 167.622 131.535 144.186L110.007 135.807L88.459 144.186C83.3646 168.345 101.938 207.469 108.088 219.506C109.567 219.151 111.035 218.766 112.491 218.354Z" fill="#ECECEC"/>
<path d="M107.122 219.959C108.014 219.983 108.907 219.998 109.804 220C110.841 219.998 111.876 219.98 112.907 219.952L118.453 213.825C114.088 215.356 109.597 216.62 105 217.597L107.122 219.959Z" fill="#D4D4D4"/>
<path d="M128.38 141.017V121.652H91.6069V141.017C91.6069 151.171 109.993 162.263 109.993 162.263C109.993 162.263 128.38 151.171 128.38 141.017Z" fill="#EDEDED"/>
<path d="M151.288 77.4807H144.259C140.35 77.4807 137.181 74.3118 137.181 70.4025V66.5289C137.181 61.4366 132.199 57.8363 127.364 59.4343C116.087 63.1614 103.912 63.1623 92.6351 59.4369L92.6218 59.4326C87.7869 57.8354 82.8056 61.4358 82.8056 66.5276V70.4029C82.8056 74.3122 79.6366 77.4812 75.7273 77.4812H68.6985V89.0561C68.6985 92.0136 71.0961 94.4117 74.0541 94.4117C74.9874 94.4117 75.7466 95.1426 75.8055 96.0742C76.9347 113.978 91.8049 128.152 109.994 128.152C128.182 128.152 143.052 113.978 144.182 96.0742C144.241 95.1431 145 94.4117 145.933 94.4117C148.891 94.4117 151.289 92.0141 151.289 89.0561V77.4807H151.288Z" fill="#EDEDED"/>
<path d="M144.259 77.4804C140.35 77.4804 137.181 74.3114 137.181 70.4021V66.5285C137.181 61.4363 132.199 57.8359 127.364 59.4339C126.028 59.8752 124.68 60.2602 123.322 60.5971V98.8272C123.134 111.266 116.318 122.091 106.252 127.942C107.482 128.076 108.729 128.151 109.993 128.151C128.182 128.151 143.052 113.977 144.181 96.0729C144.24 95.1418 145 94.4105 145.933 94.4105C148.89 94.4105 151.288 92.0128 151.288 89.0549V77.4799H144.259V77.4804Z" fill="#ECECEC"/>
<path d="M91.6067 135.807L77.1873 147.523L92.3088 166.22C94.1483 168.011 97.0435 168.121 99.0141 166.476L110.386 156.977L91.6067 135.807Z" fill="#F6F6F6"/>
<path d="M128.386 135.807L110.386 156.977L121.074 166.115C123.032 167.789 125.941 167.705 127.799 165.92L142.812 147.523L128.386 135.807Z" fill="#F6F6F6"/>
<path d="M110.386 156.977L99.1882 166.328L104.894 173.539H115.106L120.812 165.903L110.386 156.977Z" fill="#DBDBDB"/>
<path d="M189.908 185.596V177.391C189.908 169.856 186.453 162.939 180.84 158.394C164.893 190.889 133.393 214.368 96.0425 219.116C100.551 219.687 105.142 219.991 109.804 220C114.282 219.993 118.702 219.733 123.048 219.234C149.273 216.135 172.671 203.811 189.908 185.596Z" fill="#DFDFDF"/>
<path d="M123.835 207.878L115.106 173.539H104.894L96.1865 207.784L106.954 219.771C109.687 219.145 112.382 218.419 115.036 217.598L123.835 207.878Z" fill="#DFDFDF"/>
<path d="M91.6067 135.807L70.442 146.205C68.8307 146.997 68.1836 148.957 69.0064 150.552L73.1529 158.592C74.2276 160.675 73.831 163.213 72.1724 164.869C71.3186 165.722 70.3939 166.645 69.5925 167.445C68.1582 168.876 67.643 170.992 68.2747 172.918C73.281 188.179 97.3753 211.516 106.494 219.959C107.107 219.975 107.721 219.986 108.337 219.993C101.725 207.131 78.2924 158.266 91.6067 135.807Z" fill="#D8D8D8"/>
<path d="M147.821 164.869C146.162 163.213 145.765 160.674 146.84 158.591L150.987 150.552C151.809 148.956 151.162 146.996 149.551 146.205L128.386 135.807C141.697 158.26 118.281 207.105 111.662 219.983C112.284 219.972 112.905 219.957 113.524 219.936C122.662 211.473 146.717 188.165 151.718 172.918C152.35 170.992 151.835 168.877 150.401 167.445C149.599 166.645 148.674 165.721 147.821 164.869Z" fill="#D8D8D8"/>
<circle cx="110" cy="110" r="109.75" stroke="#D8D8D8" stroke-width="0.5"/>
</svg>
