<svg width="36" height="36" viewBox="0 0 36 36" fill="none" xmlns="http://www.w3.org/2000/svg">
<circle opacity="0.4" cx="18" cy="18" r="18" fill="#73C0FF"/>
<path fill-rule="evenodd" clip-rule="evenodd" d="M14.75 8.75C14.75 8.33579 14.4142 8 14 8C13.5858 8 13.25 8.33579 13.25 8.75V10H12C9.79086 10 8 11.7909 8 14V15V23C8 25.2091 9.79086 27 12 27H24C26.2091 27 28 25.2091 28 23V15V14C28 11.7909 26.2091 10 24 10H22.75V8.75C22.75 8.33579 22.4142 8 22 8C21.5858 8 21.25 8.33579 21.25 8.75V10H14.75V8.75ZM9.5 15H26.5V23C26.5 24.3807 25.3807 25.5 24 25.5H12C10.6193 25.5 9.5 24.3807 9.5 23V15ZM14.5 18.25C14.5 18.8023 14.0523 19.25 13.5 19.25C12.9477 19.25 12.5 18.8023 12.5 18.25C12.5 17.6977 12.9477 17.25 13.5 17.25C14.0523 17.25 14.5 17.6977 14.5 18.25ZM18 19.25C18.5523 19.25 19 18.8023 19 18.25C19 17.6977 18.5523 17.25 18 17.25C17.4477 17.25 17 17.6977 17 18.25C17 18.8023 17.4477 19.25 18 19.25ZM23.5 18.25C23.5 18.8023 23.0523 19.25 22.5 19.25C21.9477 19.25 21.5 18.8023 21.5 18.25C21.5 17.6977 21.9477 17.25 22.5 17.25C23.0523 17.25 23.5 17.6977 23.5 18.25ZM13.5 22.75C14.0523 22.75 14.5 22.3023 14.5 21.75C14.5 21.1977 14.0523 20.75 13.5 20.75C12.9477 20.75 12.5 21.1977 12.5 21.75C12.5 22.3023 12.9477 22.75 13.5 22.75ZM19 21.75C19 22.3023 18.5523 22.75 18 22.75C17.4477 22.75 17 22.3023 17 21.75C17 21.1977 17.4477 20.75 18 20.75C18.5523 20.75 19 21.1977 19 21.75ZM22.5 22.75C23.0523 22.75 23.5 22.3023 23.5 21.75C23.5 21.1977 23.0523 20.75 22.5 20.75C21.9477 20.75 21.5 21.1977 21.5 21.75C21.5 22.3023 21.9477 22.75 22.5 22.75Z" fill="white"/>
</svg>
