<svg width="36" height="36" viewBox="0 0 36 36" fill="none" xmlns="http://www.w3.org/2000/svg">
<circle opacity="0.4" cx="18" cy="18" r="18" fill="#73C0FF"/>
<path d="M28.0001 17.9999C28.0001 23.5228 23.5229 28 18.0001 28C12.4773 28 8.00012 23.5228 8.00012 17.9999C8.00012 12.4772 12.4773 8 18.0001 8C23.5229 8 28.0001 12.4772 28.0001 17.9999Z" fill="#3679BB"/>
<path d="M28.0001 17.9999C28.0001 23.5228 23.5231 27.9999 18.0001 27.9999C16.9776 27.9999 15.9906 27.8464 15.0614 27.5611C15.4905 27.6172 15.9278 27.6462 16.3724 27.6462C21.8954 27.6462 26.3726 23.1691 26.3726 17.6463C26.3726 13.146 23.3999 9.34048 19.3112 8.08508C24.2146 8.72731 28.0001 12.9217 28.0001 17.9999Z" fill="white"/>
<path d="M8.00016 17.9148C8.00016 23.4377 12.4772 27.9149 18.0002 27.9149C19.0226 27.9149 20.0096 27.7613 20.9388 27.476C20.5098 27.5321 20.0725 27.5612 19.6279 27.5612C14.1049 27.5612 9.62769 23.084 9.62769 17.5612C9.62769 13.0609 12.6003 9.25539 16.689 8C11.7856 8.64222 8.00016 12.8366 8.00016 17.9148Z" fill="white"/>
<path d="M23.2131 22.845C24.1754 20.5543 24.4287 17.9572 23.8989 15.4118C23.7366 14.6305 23.5055 13.8773 23.2086 13.1562C23.6531 13.0631 24.0893 12.9574 24.516 12.8391C24.9901 12.7077 25.6045 12.5248 26.195 12.267C26.0629 12.0789 25.9248 11.8952 25.7798 11.7169C25.2727 11.9255 24.7501 12.0802 24.3373 12.1949C23.8792 12.3219 23.4101 12.4339 22.9303 12.5302C22.6498 11.9429 22.3234 11.3792 21.9515 10.8419C21.2107 9.77042 20.3194 8.84645 19.2923 8.08294H19.292C19.1243 8.06115 18.9557 8.04375 18.7854 8.03041C18.5374 8.01115 18.2864 8.00084 18.0336 8.00051H18.033C18.0322 8 18.0317 8 18.0309 8H17.9694C17.9684 8 17.968 8 17.967 8.00051H17.9667C17.7138 8.00084 17.4628 8.01115 17.2148 8.03041C17.0445 8.04375 16.876 8.06115 16.7082 8.08294H16.7077C15.6809 8.84645 14.7895 9.77042 14.0486 10.8419C13.6692 11.3903 13.3364 11.9662 13.0525 12.5669C12.0991 12.379 11.1398 12.1084 10.2195 11.7177C10.0749 11.8961 9.93676 12.0794 9.80518 12.2675C10.7721 12.6934 11.778 12.9886 12.7765 13.1937C12.4866 13.9033 12.2609 14.6444 12.1013 15.4118C11.5743 17.9433 11.8222 20.5257 12.7716 22.8076C11.7744 23.0122 10.7705 23.3075 9.80518 23.7325C9.93676 23.9206 10.0749 24.1039 10.2194 24.2823C11.1403 23.8916 12.0999 23.6205 13.0533 23.4331C13.3606 24.0673 13.7244 24.6742 14.1437 25.246C14.9124 26.2948 15.7935 27.2027 16.7332 27.9206C16.8942 27.9407 17.0565 27.9571 17.2197 27.9701C17.4658 27.9889 17.7151 27.999 17.9662 27.9995H17.9667C17.9675 28 17.968 28 17.9689 28H18.0314C18.0322 28 18.0327 28 18.0336 27.9995H18.0341C18.2851 27.9992 18.5344 27.9889 18.7805 27.9701C18.9437 27.9571 19.106 27.9407 19.267 27.9206C20.2065 27.2025 21.0878 26.2948 21.8565 25.246C22.2677 24.685 22.6258 24.0906 22.9295 23.4693C23.4092 23.5661 23.8788 23.6781 24.3373 23.8051C24.7501 23.9196 25.2727 24.0745 25.7798 24.2831C25.9248 24.1048 26.0629 23.9212 26.195 23.7328C25.6047 23.4752 24.9901 23.2923 24.5162 23.1607C24.0906 23.0424 23.6564 22.9372 23.2131 22.845ZM23.2442 15.5482C23.7562 18.0084 23.4971 20.5168 22.5415 22.7152C21.9167 22.6046 21.2754 22.5185 20.62 22.457C20.9763 20.3205 21.069 17.9344 20.87 15.592C20.8104 14.8869 20.7253 14.202 20.6163 13.5434C21.2719 13.4819 21.9131 13.3957 22.5379 13.2851C22.8442 14.0062 23.0807 14.7621 23.2442 15.5482ZM18.0001 27.9535C17.5109 27.228 17.0476 26.1956 16.6525 24.947C16.4653 24.3561 16.3047 23.7247 16.1714 23.0625C16.7055 23.0337 17.2189 23.0198 17.7018 23.013C18.4256 23.0033 19.1349 23.0207 19.8285 23.0658C19.695 23.7266 19.5346 24.3571 19.3477 24.947C18.9526 26.1956 18.4893 27.228 18.0001 27.9535ZM17.6925 22.3441C17.1751 22.3514 16.6236 22.3664 16.0482 22.3995C15.6937 20.3063 15.6006 17.9575 15.7964 15.6486C15.8565 14.9418 15.9422 14.2569 16.0518 13.6005C16.6258 13.6334 17.1765 13.6486 17.6925 13.6557C17.8285 13.6576 17.964 13.6584 18.0986 13.6584C18.7261 13.6584 19.3428 13.638 19.9479 13.5969C20.0577 14.2542 20.1437 14.9405 20.204 15.6486C20.3996 17.9589 20.3065 20.309 19.9511 22.4031C19.2148 22.3531 18.4613 22.3335 17.6925 22.3441ZM18.0001 8.04459C18.7971 9.20928 19.428 10.9142 19.8271 12.9342C19.1346 12.9792 18.4251 12.9966 17.7018 12.9868C17.2192 12.98 16.7065 12.9663 16.1726 12.9373C16.5714 10.9155 17.2028 9.20979 18.0001 8.04459ZM21.4013 11.2223C21.7184 11.6807 22.0006 12.1593 22.2476 12.6564C21.6778 12.7527 21.0945 12.828 20.4977 12.8821C20.2016 11.3618 19.7768 10.004 19.2496 8.89628C20.0692 9.55945 20.7898 10.3376 21.4013 11.2223ZM14.5989 11.2223C15.2104 10.3376 15.931 9.55945 16.7506 8.89628C16.2222 10.0067 15.7967 11.368 15.5006 12.8927C14.9271 12.8481 14.3354 12.7831 13.7369 12.6881C13.9876 12.1797 14.2753 11.6905 14.5989 11.2223ZM12.756 15.5482C12.917 14.7741 13.1488 14.0295 13.4484 13.3185C14.1053 13.4292 14.7542 13.5037 15.382 13.5545C15.2741 14.2096 15.1895 14.891 15.1302 15.592C14.9317 17.93 15.0236 20.3126 15.3785 22.4458C14.7506 22.4967 14.1015 22.5712 13.4445 22.6818C12.5004 20.4913 12.2467 17.9959 12.756 15.5482ZM14.6832 24.8504C14.3261 24.3629 14.0107 23.8478 13.7393 23.3119C14.3363 23.2169 14.9263 23.1517 15.4984 23.1071C15.6398 23.8255 15.8124 24.5102 16.0148 25.149C16.194 25.7145 16.4412 26.4071 16.7555 27.0821C16.0094 26.4569 15.3086 25.7034 14.6832 24.8504ZM21.317 24.8504C20.6917 25.7034 19.9908 26.4569 19.2447 27.0821C19.5591 26.4069 19.8062 25.7145 19.9854 25.149C20.1869 24.5132 20.3586 23.8323 20.4999 23.1179C21.0949 23.1723 21.6768 23.2472 22.2449 23.3431C21.977 23.8679 21.6675 24.3723 21.317 24.8504Z" fill="white"/>
<path d="M27.5188 18.9091H8.48139C8.23587 18.9091 8.03687 18.8488 8.03687 18.7744V17.953C8.03687 17.8786 8.23587 17.8182 8.48139 17.8182H27.5188C27.7643 17.8182 27.9634 17.8786 27.9634 17.953V18.7744C27.9634 18.8488 27.7643 18.9091 27.5188 18.9091Z" fill="white"/>
<g clip-path="url(#clip0)">
<path d="M27.85 16.75C28.58 17.16 29.29 17.65 29.89 18.28C30.48 18.9 31.04 19.74 30.98 20.81C30.93 21.34 30.68 21.83 30.37 22.24C30.19 22.41 30.02 22.6 29.83 22.76C29.63 22.89 29.44 23.04 29.23 23.16C28.41 23.64 27.53 23.85 26.66 24.04C23.17 24.69 19.69 24.2 16.37 23.36C13.07 22.43 9.82 21.1 7.13 18.77C6.49 18.16 5.86 17.49 5.42 16.63C5.31 16.42 5.2 16.2 5.14 15.95L5.04 15.59L5.01 15.19C4.97 14.67 5.11 14.11 5.4 13.68C6 12.83 6.89 12.47 7.72 12.25C8.57 12.04 9.42 11.99 10.26 12C9.44 12.2 8.64 12.43 7.91 12.77C7.19 13.11 6.51 13.58 6.24 14.18C5.98 14.76 6.15 15.4 6.55 15.98C6.95 16.56 7.52 17.1 8.13 17.57C9.4 18.48 10.82 19.26 12.31 19.87C13.79 20.51 15.33 21.03 16.9 21.43C18.46 21.87 20.06 22.18 21.65 22.38C23.25 22.6 24.86 22.65 26.43 22.51C27.2 22.42 27.98 22.28 28.65 22C28.82 21.93 28.96 21.84 29.13 21.76C29.28 21.67 29.4 21.56 29.54 21.46C29.76 21.23 29.94 20.98 30.02 20.67C30.18 20.05 29.89 19.28 29.46 18.62C29.02 17.95 28.46 17.33 27.85 16.75Z" fill="white"/>
</g>
<defs>
<clipPath id="clip0">
<rect width="25.99" height="12.34" fill="white" transform="translate(5 12)"/>
</clipPath>
</defs>
</svg>
