<svg width="52" height="52" viewBox="0 0 52 52" fill="none" xmlns="http://www.w3.org/2000/svg">
<g id="Iconly/Bold/Edit">
<g id="Ellipse 11" filter="url(#filter0_d)">
<circle cx="26" cy="25" r="22" fill="#088EF4"/>
</g>
<g id="Edit">
<path id="Edit_2" fill-rule="evenodd" clip-rule="evenodd" d="M36.1228 21.956C36.8194 21.2557 37.3468 20.3775 37.5159 19.4042C37.7843 17.8538 37.2972 16.3736 36.2407 15.3098L34.452 13.513C32.6664 11.7177 29.7452 11.7177 27.9596 13.513L26.99 14.4894C26.7976 14.6828 26.7976 14.9963 26.99 15.1897L34.573 22.8139C34.7654 23.0073 35.0772 23.0073 35.2696 22.8139L36.1228 21.956ZM33.0193 25.0902L21.4819 36.6762C20.6845 37.4764 19.6017 37.9271 18.4723 37.9271H12.9681C12.6749 37.9271 12.3972 37.8086 12.1769 37.6027C11.9721 37.3828 11.8682 37.102 11.8682 36.7932L12.0155 31.2232C12.0295 30.1189 12.4841 29.0723 13.2613 28.2909L24.7382 16.7501C24.9305 16.5567 25.2439 16.5567 25.4363 16.7501L33.0193 24.3899C33.2117 24.5833 33.2117 24.8968 33.0193 25.0902ZM37.8991 37.9295H27.8758C27.2335 37.9295 26.7123 37.4054 26.7123 36.7597C26.7123 36.1139 27.2335 35.5898 27.8758 35.5898H37.8991C38.5413 35.5898 39.0626 36.1139 39.0626 36.7597C39.0626 37.4054 38.5413 37.9295 37.8991 37.9295Z" fill="white"/>
</g>
</g>
<defs>
<filter id="filter0_d" x="0" y="0" width="52" height="52" filterUnits="userSpaceOnUse" color-interpolation-filters="sRGB">
<feFlood flood-opacity="0" result="BackgroundImageFix"/>
<feColorMatrix in="SourceAlpha" type="matrix" values="0 0 0 0 0 0 0 0 0 0 0 0 0 0 0 0 0 0 127 0"/>
<feOffset dy="1"/>
<feGaussianBlur stdDeviation="2"/>
<feColorMatrix type="matrix" values="0 0 0 0 0 0 0 0 0 0 0 0 0 0 0 0 0 0 0.25 0"/>
<feBlend mode="normal" in2="BackgroundImageFix" result="effect1_dropShadow"/>
<feBlend mode="normal" in="SourceGraphic" in2="effect1_dropShadow" result="shape"/>
</filter>
</defs>
</svg>
