<svg width="101" height="104" viewBox="0 0 101 104" fill="none" xmlns="http://www.w3.org/2000/svg">
<path d="M96.4969 103.999H0V42.8243L43.3739 11.7624C46.2883 9.67556 50.2057 9.67556 53.1201 11.7624L96.494 42.8243V103.999H96.4969Z" fill="#FFA000"/>
<path d="M72.3611 15.4863H9.9519V77.473H87.0763V30.2083L72.3611 15.4863Z" fill="#EAEAEA"/>
<path d="M72.3613 30.2083H87.0765L72.3613 15.4863V30.2083Z" fill="#F2F2F2"/>
<path d="M0 103.999L43.3425 72.6453C46.2712 70.5271 50.2257 70.5271 53.1544 72.6453L96.4969 103.999H0Z" fill="#FFB300"/>
<path d="M96.4967 42.8242L53.1543 72.6455L96.4967 103.999V42.8242Z" fill="#FFC107"/>
<path d="M79.2445 34.5439H16.7524V36.0676H79.2445V34.5439Z" fill="#D0D8DC"/>
<path d="M79.2445 42.1328H16.7524V43.6565H79.2445V42.1328Z" fill="#D0D8DC"/>
<path d="M79.2445 49.7217H16.7524V51.2453H79.2445V49.7217Z" fill="#D0D8DC"/>
<path d="M58.4062 57.3154H16.7524V58.8391H58.4062V57.3154Z" fill="#D0D8DC"/>
<path d="M72.3613 30.209L87.0765 34.5427V30.209H72.3613Z" fill="#BDBDBD"/>
<path d="M0 42.8242L42.2824 73.4116L0 103.999V42.8242Z" fill="#FFC107"/>
<path d="M81.3417 12.447C80.8988 12.447 80.5388 12.0868 80.5388 11.6437V4.67437C80.5388 4.23128 80.8988 3.87109 81.3417 3.87109C81.7846 3.87109 82.1446 4.23128 82.1446 4.67437V11.6409C82.1446 12.0868 81.7846 12.447 81.3417 12.447Z" fill="#D1B2B4"/>
<path d="M81.3417 3.0388C80.8988 3.0388 80.5388 2.67861 80.5388 2.23552V0.806206C80.5388 0.363118 80.8988 0.00292969 81.3417 0.00292969C81.7846 0.00292969 82.1446 0.363118 82.1446 0.806206V2.23552C82.1446 2.67861 81.7846 3.0388 81.3417 3.0388Z" fill="#D1B2B4"/>
<path d="M93.8909 20.3956H89.3649C88.922 20.3956 88.562 20.0354 88.562 19.5923C88.562 19.1492 88.922 18.7891 89.3649 18.7891H93.8909C94.3338 18.7891 94.6938 19.1492 94.6938 19.5923C94.6938 20.0354 94.3338 20.3956 93.8909 20.3956Z" fill="#D1B2B4"/>
<path d="M100.197 20.3956H96.3283C95.8854 20.3956 95.5254 20.0354 95.5254 19.5923C95.5254 19.1492 95.8854 18.7891 96.3283 18.7891H100.197C100.64 18.7891 101 19.1492 101 19.5923C101 20.0354 100.64 20.3956 100.197 20.3956Z" fill="#D1B2B4"/>
<path d="M89.8222 11.9516C89.6164 11.9516 89.4107 11.8744 89.2536 11.7172C88.9392 11.4027 88.9392 10.8939 89.2536 10.5795L93.6967 6.13427C94.011 5.81983 94.5196 5.81983 94.8339 6.13427C95.1482 6.44872 95.1482 6.95756 94.8339 7.27201L90.3908 11.7172C90.2336 11.8716 90.0279 11.9516 89.8222 11.9516Z" fill="#D1B2B4"/>
<path d="M86.6049 15.1709C86.3992 15.1709 86.1934 15.0937 86.0363 14.9365C85.722 14.622 85.722 14.1132 86.0363 13.7987L87.6307 12.2036C87.945 11.8892 88.4536 11.8892 88.7679 12.2036C89.0822 12.5181 89.0822 13.0269 88.7679 13.3413L87.1735 14.9365C87.0163 15.0908 86.8106 15.1709 86.6049 15.1709Z" fill="#D1B2B4"/>
</svg>
