<svg width="140" height="137" viewBox="0 0 140 137" fill="none" xmlns="http://www.w3.org/2000/svg">
<path d="M92.0157 82.9004L55.4017 121.071L3.17261 68.9129L41.9271 30.2041L92.0157 82.9004Z" fill="white"/>
<path d="M91.9642 82.8836L55.2952 121.063L3.06616 68.9057L41.7734 30.2129L91.9642 82.8836Z" fill="#FEFEFE"/>
<path d="M91.9129 82.8658L55.1884 121.055L2.95996 68.8968L41.6205 30.2207L91.9129 82.8658Z" fill="#FDFDFD"/>
<path d="M91.8614 82.851L55.082 121.049L2.85303 68.8915L41.4675 30.2314L91.8614 82.851Z" fill="#FBFCFC"/>
<path d="M91.81 82.8342L54.9756 121.041L2.74658 68.8836L41.3138 30.2402L91.81 82.8342Z" fill="#FAFAFB"/>
<path d="M91.7589 82.8164L54.8689 121.033L2.64038 68.8748L41.161 30.248L91.7589 82.8164Z" fill="#F9F9FA"/>
<path d="M91.7075 82.801L54.7625 121.027L2.53345 68.8688L41.0074 30.2588L91.7075 82.801Z" fill="#F8F8F8"/>
<path d="M91.6559 82.7842L54.656 121.019L2.427 68.861L40.8542 30.2676L91.6559 82.7842Z" fill="#F7F7F7"/>
<path d="M91.6046 82.7664L54.5493 121.011L2.3208 68.8527L40.7008 30.2754L91.6046 82.7664Z" fill="#F5F6F6"/>
<path d="M91.5529 82.7515L54.4426 121.005L2.21362 68.8468L40.5475 30.2861L91.5529 82.7515Z" fill="#F4F5F5"/>
<path d="M91.5017 82.7347L54.3365 120.997L2.10742 68.8395L40.394 30.2949L91.5017 82.7347Z" fill="#F3F4F4"/>
<path d="M91.4501 82.717L54.2294 120.988L2.00098 68.8307L40.2409 30.3027L91.4501 82.717Z" fill="#F2F2F3"/>
<path d="M91.3988 82.7002L54.1231 120.981L1.89404 68.8234L40.0873 30.3115L91.3988 82.7002Z" fill="#F1F1F2"/>
<path d="M91.3473 82.6834L54.0166 120.973L1.7876 68.8155L39.9342 30.3203L91.3473 82.6834Z" fill="#F0F0F1"/>
<path d="M91.2959 82.6676L53.9097 120.967L1.68066 68.8092L39.7806 30.3301L91.2959 82.6676Z" fill="#EEEFF0"/>
<path d="M91.2447 82.6508L53.8035 120.959L1.57446 68.8014L39.6277 30.3389L91.2447 82.6508Z" fill="#EDEEEF"/>
<path d="M91.1933 82.634L53.6965 120.952L1.46802 68.7941L39.474 30.3477L91.1933 82.634Z" fill="#ECEDED"/>
<path d="M91.1418 82.6162L53.5901 120.943L1.36108 68.7852L39.321 30.3555L91.1418 82.6162Z" fill="#EBECEC"/>
<path d="M91.0906 82.5994L53.484 120.935L1.25488 68.7774L39.1675 30.3643L91.0906 82.5994Z" fill="#EAEAEB"/>
<path d="M91.039 82.5859L53.3769 120.931L1.14844 68.7734L39.0144 30.377L91.039 82.5859Z" fill="#E8E9EA"/>
<path d="M90.9877 82.5691L53.2706 120.923L1.0415 68.7655L38.8608 30.3857L90.9877 82.5691Z" fill="#E7E8E9"/>
<path d="M38.7071 30.3915L0.935547 68.7559L53.1655 120.913L90.937 82.5485L38.7071 30.3915Z" fill="#E6E7E8"/>
<path d="M38.7094 30.3876L0.937744 68.752L53.1678 120.909L90.9395 82.5446L38.7094 30.3876Z" fill="#E0E0E0"/>
<path d="M47.4877 67.416C47.2839 67.6225 46.9519 67.6231 46.7469 67.4184C46.5413 67.2131 46.5395 66.8781 46.7433 66.671L50.4377 62.9183C50.4382 62.9177 50.4383 62.9177 50.4388 62.9171C50.6427 62.7106 50.9747 62.71 51.1797 62.9147C51.3853 63.12 51.3871 63.455 51.1833 63.6621L47.4889 67.4148C47.4883 67.4154 47.4883 67.4154 47.4877 67.416Z" fill="#A7A9AC"/>
<path d="M20.8525 73.7017C20.648 73.9082 20.3166 73.9094 20.1116 73.7041C19.9054 73.4982 19.9042 73.1638 20.108 72.9567L28.605 64.3261C28.6056 64.3255 28.6056 64.3255 28.6056 64.3255C28.81 64.1191 29.1415 64.1179 29.3471 64.3231C29.5533 64.529 29.5544 64.8634 29.3506 65.0705L20.8536 73.7011C20.8531 73.7011 20.8525 73.7017 20.8525 73.7017Z" fill="#A7A9AC"/>
<path d="M22.8937 75.7418C22.6893 75.9483 22.3579 75.9495 22.1528 75.7442C21.9467 75.5384 21.9455 75.204 22.1493 74.9969L34.2018 62.7564C34.2024 62.7558 34.2024 62.7558 34.203 62.7552C34.4068 62.5487 34.7388 62.5475 34.9438 62.7528C35.15 62.9587 35.1512 63.2931 34.9474 63.5002L22.8949 75.7407C22.8943 75.7412 22.8943 75.7412 22.8937 75.7418Z" fill="#A7A9AC"/>
<path d="M36.1603 62.2676C35.9565 62.4741 35.6251 62.4753 35.4195 62.27C35.2133 62.0642 35.2121 61.7298 35.4159 61.5227L46.2855 50.483C46.2861 50.4824 46.2861 50.4824 46.2867 50.4818C46.4905 50.2753 46.8226 50.2741 47.0276 50.4794C47.2338 50.6853 47.2349 51.0197 47.0311 51.2267L36.1615 62.2665C36.1609 62.2671 36.1609 62.2671 36.1603 62.2676Z" fill="#A7A9AC"/>
<path d="M24.9362 77.7814C24.7318 77.9879 24.4003 77.9891 24.1953 77.7838C23.9891 77.5779 23.988 77.2435 24.1918 77.0365L41.1863 59.7759C41.1869 59.7753 41.1869 59.7753 41.1875 59.7747C41.3913 59.5683 41.7233 59.5671 41.9283 59.7724C42.1345 59.9782 42.1357 60.3126 41.9319 60.5197L24.9374 77.7802C24.9368 77.7808 24.9362 77.7808 24.9362 77.7814Z" fill="#A7A9AC"/>
<path d="M14.9981 69.2338C14.7328 69.5022 14.3027 69.5034 14.0357 69.2368C13.768 68.9696 13.7662 68.5353 14.0315 68.2663L36.1023 45.8505C36.1029 45.8499 36.1029 45.8499 36.1035 45.8493C36.3681 45.5816 36.7988 45.5798 37.0659 45.8463C37.3335 46.1135 37.3353 46.5479 37.07 46.8168L14.9993 69.2326C14.9987 69.2332 14.9987 69.2338 14.9981 69.2338Z" fill="#A7A9AC"/>
<path d="M27.0942 79.9008C26.8897 80.1073 26.5583 80.1079 26.3533 79.9032C26.1471 79.6974 26.1459 79.363 26.3497 79.1559L34.8473 70.5259C34.8479 70.5253 34.8479 70.5253 34.8485 70.5247C35.0529 70.3183 35.3844 70.3171 35.5894 70.5224C35.795 70.7276 35.7967 71.0626 35.5929 71.2697L27.0959 79.9002C27.0947 79.9008 27.0947 79.9008 27.0942 79.9008Z" fill="#A7A9AC"/>
<path d="M29.1367 81.9385C28.9322 82.145 28.6008 82.1456 28.3958 81.9409C28.1902 81.7356 28.1884 81.4007 28.3922 81.1936L31.5779 77.958C31.5785 77.9574 31.5785 77.9574 31.5785 77.9574C31.7829 77.7509 32.1143 77.7497 32.3199 77.955C32.5255 78.1603 32.5273 78.4952 32.3235 78.7023L29.1378 81.938C29.1367 81.9385 29.1367 81.9385 29.1367 81.9385Z" fill="#A7A9AC"/>
<path d="M33.5358 77.4718C33.3314 77.6782 33 77.6788 32.795 77.4742C32.5894 77.2689 32.5876 76.9339 32.7914 76.7268L52.5279 56.681C52.5284 56.6804 52.5284 56.6804 52.529 56.6798C52.7329 56.4733 53.0649 56.4727 53.2699 56.6774C53.4755 56.8827 53.4773 57.2177 53.2734 57.4247L33.537 77.4706C33.5364 77.4718 33.5358 77.4718 33.5358 77.4718Z" fill="#A7A9AC"/>
<path d="M31.1784 83.9814C30.974 84.1879 30.6426 84.1885 30.4375 83.9838C30.2319 83.7785 30.2302 83.4435 30.434 83.2364L45.4582 67.9769C45.4588 67.9763 45.4588 67.9763 45.4594 67.9757C45.6632 67.7692 45.9952 67.7686 46.2003 67.9733C46.4059 68.1786 46.4076 68.5136 46.2038 68.7206L31.1796 83.9802C31.179 83.9808 31.1784 83.9808 31.1784 83.9814Z" fill="#A7A9AC"/>
<path d="M33.6481 86.41C33.4437 86.6165 33.1123 86.6171 32.9073 86.4124C32.7017 86.2071 32.6999 85.8722 32.9037 85.6651L41.4007 77.0345C41.4013 77.0339 41.4013 77.0339 41.4018 77.0333C41.6063 76.8268 41.9377 76.8262 42.1427 77.0309C42.3483 77.2362 42.3501 77.5712 42.1463 77.7782L33.6493 86.4088C33.6487 86.4094 33.6481 86.41 33.6481 86.41Z" fill="#A7A9AC"/>
<path d="M35.6899 88.4471C35.4855 88.6535 35.154 88.6541 34.949 88.4494C34.7434 88.2442 34.7416 87.9092 34.9455 87.7021L44.0421 78.4628C44.0427 78.4622 44.0427 78.4622 44.0427 78.4622C44.2471 78.2558 44.5785 78.2546 44.7841 78.4599C44.9897 78.6651 44.9915 79.0001 44.7877 79.2072L35.6911 88.4465C35.6899 88.4465 35.6899 88.4465 35.6899 88.4471Z" fill="#A7A9AC"/>
<path d="M54.8669 68.971C54.6631 69.1775 54.331 69.1781 54.126 68.9734C53.9204 68.7681 53.9186 68.4331 54.1225 68.2261L59.0811 63.1898C59.0817 63.1892 59.0817 63.1892 59.0823 63.1886C59.2861 62.9821 59.6181 62.9815 59.8231 63.1862C60.0287 63.3915 60.0305 63.7265 59.8267 63.9336L54.8681 68.9698C54.8675 68.9704 54.8675 68.9704 54.8669 68.971Z" fill="#A7A9AC"/>
<path d="M45.5788 78.4047C45.3744 78.6112 45.0429 78.6118 44.8379 78.4071C44.6323 78.2018 44.6306 77.8669 44.8344 77.6598L53.2415 69.1214C53.2421 69.1208 53.2421 69.1208 53.2427 69.1202C53.4465 68.9137 53.7786 68.9132 53.9836 69.1178C54.1892 69.3231 54.1909 69.6581 53.9871 69.8652L45.58 78.4036C45.5794 78.4041 45.5788 78.4041 45.5788 78.4047Z" fill="#A7A9AC"/>
<path d="M37.7314 90.4852C37.527 90.6916 37.1955 90.6922 36.9905 90.4875C36.7849 90.2823 36.7831 89.9473 36.987 89.7402L51.0263 75.4809C51.2402 75.2447 51.5628 75.2721 51.7684 75.4774C51.974 75.6826 51.9758 76.0176 51.7719 76.2247L37.7326 90.484C37.732 90.4846 37.7314 90.4846 37.7314 90.4852Z" fill="#A7A9AC"/>
<path d="M52.8776 75.1041C52.6738 75.31 52.3418 75.3112 52.1368 75.1065C51.9312 74.9012 51.9294 74.5662 52.1332 74.3591L59.2762 67.1048C59.2768 67.1042 59.2768 67.1042 59.2773 67.1036C59.4812 66.8971 59.8132 66.8966 60.0182 67.1012C60.2238 67.3065 60.2256 67.6415 60.0218 67.8486L52.8788 75.1029C52.8782 75.1035 52.8782 75.1035 52.8776 75.1041Z" fill="#A7A9AC"/>
<path d="M99.0562 98.653L48.9603 91.6533L60.1061 21.6762L111.819 30.0384L99.0562 98.653Z" fill="white"/>
<path d="M99.0395 98.6022L48.9057 91.5646L60.0514 21.5875L111.725 29.9225L99.0395 98.6022Z" fill="#FEFEFE"/>
<path d="M99.0236 98.5537L48.8514 91.4779L59.9975 21.5011L111.632 29.809L99.0236 98.5537Z" fill="#FDFDFD"/>
<path d="M99.0082 98.5051L48.7983 91.3923L59.9441 21.4153L111.54 29.6963L99.0082 98.5051Z" fill="#FBFCFC"/>
<path d="M98.9918 98.4557L48.7436 91.3047L59.8898 21.328L111.446 29.5818L98.9918 98.4557Z" fill="#FAFAFB"/>
<path d="M98.9756 98.4059L48.689 91.2174L59.8352 21.2406L111.353 29.4669L98.9756 98.4059Z" fill="#F9F9FA"/>
<path d="M98.9605 98.3554L48.6366 91.1294L59.7823 21.1523L111.261 29.3518L98.9605 98.3554Z" fill="#F8F8F8"/>
<path d="M98.9439 98.3084L48.5817 91.0441L59.7279 21.0675L111.168 29.2393L98.9439 98.3084Z" fill="#F7F7F7"/>
<path d="M98.9288 98.2581L48.5286 90.9559L59.6748 20.9792L111.076 29.1244L98.9288 98.2581Z" fill="#F5F6F6"/>
<path d="M98.9127 98.2075L48.4747 90.8675L59.6203 20.8904L110.982 29.0084L98.9127 98.2075Z" fill="#F4F5F5"/>
<path d="M98.896 98.1606L48.4197 90.7832L59.5659 20.8065L110.889 28.8972L98.896 98.1606Z" fill="#F3F4F4"/>
<path d="M98.8811 98.1103L48.3669 90.6949L59.513 20.7182L110.797 28.7822L98.8811 98.1103Z" fill="#F2F2F3"/>
<path d="M98.8649 98.0622L48.3124 90.6094L59.4581 20.6323L110.704 28.6692L98.8649 98.0622Z" fill="#F1F1F2"/>
<path d="M98.8482 98.0108L48.2579 90.5202L59.4042 20.5435L110.61 28.5527L98.8482 98.0108Z" fill="#F0F0F1"/>
<path d="M98.8339 97.9628L48.2051 90.4339L59.3513 20.4572L110.519 28.4397L98.8339 97.9628Z" fill="#EEEFF0"/>
<path d="M98.8168 97.9143L48.1504 90.3484L59.2961 20.3714L110.425 28.3266L98.8168 97.9143Z" fill="#EDEEEF"/>
<path d="M98.8023 97.8629L48.0976 90.2588L59.2438 20.2821L110.333 28.2106L98.8023 97.8629Z" fill="#ECEDED"/>
<path d="M98.7859 97.815L48.0428 90.1734L59.1889 20.1967L110.24 28.0976L98.7859 97.815Z" fill="#EBECEC"/>
<path d="M98.7691 97.7635L47.9886 90.0845L59.1344 20.1074L110.146 27.9815L98.7691 97.7635Z" fill="#EAEAEB"/>
<path d="M98.7546 97.7151L47.9355 89.9983L59.0816 20.0216L110.054 27.8681L98.7546 97.7151Z" fill="#E8E9EA"/>
<path d="M98.7378 97.6648L47.8807 89.91L59.0268 19.9333L109.961 27.7531L98.7378 97.6648Z" fill="#E7E8E9"/>
<path d="M109.872 27.6407L58.9741 19.8486L47.8288 89.8297L98.7268 97.6218L109.872 27.6407Z" fill="#E6E7E8"/>
<path d="M109.876 27.6417L58.9778 19.8496L47.8325 89.8306L98.7304 97.6226L109.876 27.6417Z" fill="#F5F5F5"/>
<path d="M86.099 55.3038C85.8249 55.2612 85.6379 55.0035 85.682 54.7292C85.7258 54.4531 85.9844 54.264 86.2592 54.3057L91.2371 55.0676C91.2379 55.0675 91.2379 55.0675 91.2384 55.0679C91.5124 55.1105 91.6995 55.3682 91.6559 55.6429C91.6121 55.9189 91.3535 56.1081 91.0787 56.0664L86.1008 55.3045C86.0995 55.3042 86.0995 55.3042 86.099 55.3038Z" fill="#A7A9AC"/>
<path d="M66.2995 38.1237C66.0249 38.0807 65.8388 37.8237 65.8823 37.5482C65.9262 37.2721 66.1848 37.083 66.4592 37.1251L77.9084 38.8781C77.9093 38.878 77.9093 38.878 77.9093 38.878C78.1841 38.9205 78.3707 39.1778 78.3268 39.453C78.2829 39.729 78.0243 39.9182 77.7499 39.8761L66.3007 38.1231C66.2999 38.1241 66.2999 38.1241 66.2995 38.1237Z" fill="#A7A9AC"/>
<path d="M65.8648 40.8573C65.5908 40.8147 65.4038 40.5577 65.4473 40.2822C65.4911 40.0062 65.7497 39.817 66.0245 39.8587L82.2638 42.3454C82.2646 42.3453 82.2646 42.3453 82.2651 42.3456C82.5392 42.3882 82.7261 42.6451 82.6823 42.9212C82.6384 43.1972 82.3798 43.3863 82.1054 43.3442L65.8661 40.8575C65.8653 40.8576 65.8648 40.8573 65.8648 40.8573Z" fill="#A7A9AC"/>
<path d="M83.739 43.5944C83.4649 43.5518 83.278 43.2949 83.3219 43.0197C83.3658 42.7437 83.6244 42.5545 83.8992 42.5962L98.5453 44.8385C98.5461 44.8384 98.5461 44.8384 98.5466 44.8387C98.8206 44.8813 99.0076 45.1382 98.9636 45.4134C98.9198 45.6894 98.6612 45.8786 98.3864 45.8369L83.7403 43.5946C83.7394 43.5947 83.7394 43.5947 83.739 43.5944Z" fill="#A7A9AC"/>
<path d="M65.428 43.5957C65.1535 43.5528 64.967 43.2962 65.0108 43.0202C65.0547 42.7442 65.3133 42.5551 65.5877 42.5972L88.4862 46.103C88.487 46.1029 88.487 46.1029 88.4875 46.1033C88.7615 46.1459 88.9485 46.4028 88.9046 46.6788C88.8608 46.9548 88.6022 47.144 88.3278 47.1018L65.4293 43.596C65.4285 43.5961 65.4285 43.5961 65.428 43.5957Z" fill="#A7A9AC"/>
<path d="M66.4834 31.0553C66.1272 30.9999 65.885 30.6659 65.9415 30.3084C65.9987 29.9499 66.3345 29.7041 66.6911 29.7591L96.4291 34.3124C96.4299 34.3123 96.4299 34.3123 96.4304 34.3127C96.7866 34.3681 97.0288 34.7021 96.9723 35.0596C96.9151 35.418 96.5792 35.6638 96.2226 35.6089L66.4847 31.0555C66.4842 31.0552 66.4834 31.0553 66.4834 31.0553Z" fill="#A7A9AC"/>
<path d="M64.9949 46.4667C64.7203 46.4238 64.5338 46.1664 64.5773 45.8917C64.6212 45.6156 64.8798 45.4265 65.1542 45.4686L76.6034 47.2216C76.6043 47.2215 76.6043 47.2215 76.6047 47.2219C76.8792 47.2648 77.0657 47.5214 77.0219 47.7974C76.9779 48.0726 76.7194 48.2625 76.445 48.2204L64.9958 46.4674C64.9957 46.4666 64.9953 46.4671 64.9949 46.4667Z" fill="#A7A9AC"/>
<path d="M64.5596 49.2019C64.2851 49.159 64.0985 48.9016 64.1421 48.6269C64.186 48.3509 64.4445 48.1617 64.7193 48.2034L69.0117 48.8603C69.0125 48.8602 69.0125 48.8602 69.0125 48.8602C69.287 48.9032 69.4736 49.1606 69.43 49.4353C69.3857 49.7109 69.1276 49.9004 68.8528 49.8588L64.5605 49.2018C64.56 49.2015 64.56 49.2015 64.5596 49.2019Z" fill="#A7A9AC"/>
<path d="M70.4875 50.1088C70.213 50.0658 70.0264 49.8084 70.07 49.5337C70.1139 49.2577 70.3724 49.0685 70.6472 49.1102L97.2407 53.1817C97.2416 53.1816 97.2416 53.1816 97.242 53.182C97.5161 53.2246 97.7031 53.4823 97.6595 53.7571C97.6157 54.0331 97.3571 54.2222 97.0823 54.1806L70.4888 50.109C70.4884 50.1086 70.488 50.1091 70.4875 50.1088Z" fill="#A7A9AC"/>
<path d="M64.1243 51.9385C63.8498 51.8956 63.6632 51.6382 63.7072 51.363C63.751 51.087 64.0096 50.8978 64.284 50.94L84.528 54.0394C84.5288 54.0392 84.5288 54.0392 84.5293 54.0396C84.8033 54.0822 84.9904 54.34 84.9468 54.6147C84.9029 54.8907 84.6443 55.0798 84.3699 55.0377L64.126 51.9383C64.1252 51.9384 64.1247 51.938 64.1243 51.9385Z" fill="#A7A9AC"/>
<path d="M63.6251 55.2254C63.3506 55.1824 63.164 54.9251 63.2076 54.6503C63.2514 54.3743 63.51 54.1852 63.7844 54.2273L75.2336 55.9803C75.2344 55.9802 75.2344 55.9802 75.2349 55.9806C75.5089 56.0232 75.696 56.2809 75.6519 56.5552C75.6076 56.8309 75.3495 57.0204 75.0747 56.9787L63.6255 55.2258C63.6259 55.2253 63.6259 55.2253 63.6251 55.2254Z" fill="#A7A9AC"/>
<path d="M63.188 57.9611C62.914 57.9185 62.7269 57.6608 62.7709 57.3856C62.8152 57.1099 63.0733 56.9204 63.3477 56.9625L75.6051 58.8391C75.6059 58.839 75.6059 58.839 75.6059 58.839C75.8808 58.8815 76.067 59.1393 76.0234 59.414C75.9795 59.6892 75.721 59.8792 75.4466 59.837L63.1892 57.9605C63.1888 57.961 63.188 57.9611 63.188 57.9611Z" fill="#A7A9AC"/>
<path d="M89.0293 61.9154C88.7552 61.8728 88.5682 61.6151 88.6121 61.3399C88.6561 61.0647 88.9145 60.8748 89.189 60.9169L95.8705 61.9399C95.8714 61.9398 95.8714 61.9398 95.8718 61.9402C96.1459 61.9828 96.3329 62.2405 96.289 62.5157C96.2451 62.7917 95.9865 62.9809 95.7121 62.9387L89.0305 61.9157C89.0301 61.9153 89.0301 61.9153 89.0293 61.9154Z" fill="#A7A9AC"/>
<path d="M76.5148 60.0003C76.2403 59.9574 76.0537 59.7 76.0973 59.4253C76.1411 59.1492 76.3997 58.9601 76.6745 59.0018L88.0016 60.7364C88.002 60.7367 88.0021 60.7367 88.0029 60.7366C88.2769 60.7792 88.464 61.037 88.4204 61.3117C88.3765 61.5877 88.118 61.7768 87.8435 61.7347L76.5165 60.0001C76.5156 60.0002 76.5148 60.0003 76.5148 60.0003Z" fill="#A7A9AC"/>
<path d="M62.7543 60.6963C62.4797 60.6533 62.2932 60.396 62.3367 60.1213C62.3806 59.8452 62.6392 59.6561 62.9136 59.6982L81.8303 62.5948C82.1332 62.6283 82.2926 62.8946 82.2491 63.1701C82.2052 63.4462 81.9467 63.6353 81.6722 63.5932L62.7555 60.6966C62.7551 60.6962 62.7546 60.6958 62.7543 60.6963Z" fill="#A7A9AC"/>
<path d="M83.1617 63.8215C82.8876 63.7789 82.7006 63.5211 82.7445 63.2459C82.7885 62.9707 83.047 62.7808 83.3214 62.8229L92.9454 64.2967C92.9462 64.2966 92.9462 64.2966 92.9467 64.2969C93.2207 64.3395 93.4077 64.5973 93.3637 64.8716C93.3199 65.1476 93.0613 65.3368 92.7868 65.2946L83.1629 63.8209C83.1625 63.8214 83.1625 63.8214 83.1617 63.8215Z" fill="#A7A9AC"/>
<g opacity="0.66">
<path opacity="0.66" d="M103.045 121.353L63.6685 94.8171L100.723 40.9629L139.468 71.3232L103.045 121.353Z" fill="white"/>
<path opacity="0.66" d="M103.008 121.298L63.6248 94.7168L100.697 40.8281L139.48 71.0521L103.008 121.298Z" fill="#FCFCFC"/>
<path opacity="0.66" d="M102.971 121.245L63.5811 94.6179L100.671 40.6953L139.49 70.7825L102.971 121.245Z" fill="#F9F9F9"/>
<path opacity="0.66" d="M102.935 121.189L63.5374 94.5177L100.645 40.5605L139.501 70.5109L102.935 121.189Z" fill="#F5F6F6"/>
<path opacity="0.66" d="M102.898 121.136L63.4941 94.4188L100.619 40.4277L139.512 70.2412L102.898 121.136Z" fill="#F2F3F3"/>
<path opacity="0.66" d="M102.861 121.081L63.4504 94.3179L100.593 40.293L139.523 69.9696L102.861 121.081Z" fill="#EFF0F0"/>
<path opacity="0.66" d="M102.825 121.026L63.4067 94.2182L100.567 40.1582L139.534 69.6986L102.825 121.026Z" fill="#ECECED"/>
<path opacity="0.66" d="M102.788 120.971L63.363 94.1174L100.541 40.0234L139.545 69.4269L102.788 120.971Z" fill="#E9E9EA"/>
<path opacity="0.66" d="M102.751 120.918L63.3198 94.0185L100.515 39.8906L139.556 69.1573L102.751 120.918Z" fill="#E5E6E7"/>
<path opacity="0.66" d="M102.714 120.863L63.2761 93.9176L100.489 39.7559L139.567 68.8857L102.714 120.863Z" fill="#E2E3E4"/>
<path opacity="0.66" d="M102.678 120.809L63.2324 93.8193L100.463 39.623L139.578 68.616L102.678 120.809Z" fill="#DFE0E1"/>
<path opacity="0.66" d="M102.641 120.754L63.1887 93.7191L100.437 39.4883L139.589 68.345L102.641 120.754Z" fill="#DCDDDE"/>
<path opacity="0.66" d="M102.604 120.699L63.145 93.6182L100.411 39.3535L139.6 68.0734L102.604 120.699Z" fill="#D9DADB"/>
<path opacity="0.66" d="M102.568 120.646L63.1018 93.5199L100.385 39.2207L139.611 67.8037L102.568 120.646Z" fill="#D6D7D8"/>
<path opacity="0.66" d="M102.531 120.59L63.0583 93.4191L100.359 39.0859L139.622 67.5321L102.531 120.59Z" fill="#D2D4D5"/>
<path opacity="0.66" d="M102.494 120.537L63.0144 93.3202L100.333 38.9531L139.633 67.2624L102.494 120.537Z" fill="#CFD1D2"/>
<path opacity="0.66" d="M102.458 120.483L62.9707 93.2199L100.307 38.8184L139.644 66.9914L102.458 120.483Z" fill="#CCCDCF"/>
<path opacity="0.66" d="M102.421 120.427L62.9277 93.1197L100.281 38.6836L139.655 66.7198L102.421 120.427Z" fill="#C9CACC"/>
<path opacity="0.66" d="M102.384 120.374L62.8838 93.0208L100.255 38.5508L139.666 66.4501L102.384 120.374Z" fill="#C6C7C9"/>
<path opacity="0.66" d="M102.347 120.318L62.8401 92.9199L100.229 38.416L139.676 66.1785L102.347 120.318Z" fill="#C2C4C6"/>
<path opacity="0.66" d="M102.311 120.265L62.7964 92.8216L100.203 38.2832L139.687 65.9088L102.311 120.265Z" fill="#BFC1C3"/>
<path opacity="0.66" d="M139.694 65.6384L100.174 38.1484L62.7488 92.719L102.269 120.209L139.694 65.6384Z" fill="#BCBEC0"/>
</g>
<path d="M139.712 65.6043L100.192 38.1143L62.7671 92.6849L102.287 120.175L139.712 65.6043Z" fill="#EDEDED"/>
<path d="M108.643 81.766C108.406 81.6214 108.33 81.3108 108.472 81.0716C108.615 80.8318 108.924 80.7544 109.162 80.899L113.47 83.5105C113.471 83.5111 113.471 83.5111 113.471 83.5111C113.708 83.6557 113.784 83.9663 113.642 84.2055C113.499 84.4453 113.19 84.5226 112.952 84.378L108.644 81.7665C108.644 81.766 108.644 81.766 108.643 81.766Z" fill="#A7A9AC"/>
<path d="M96.7823 58.221C96.5454 58.0764 96.4692 57.7658 96.6122 57.5267C96.7557 57.2869 97.0641 57.2095 97.3022 57.3541L107.208 63.3607C107.209 63.3613 107.209 63.3613 107.209 63.3613C107.447 63.5059 107.523 63.8164 107.38 64.0556C107.236 64.2954 106.928 64.3728 106.69 64.2282L96.7835 58.2216C96.7829 58.2216 96.7823 58.221 96.7823 58.221Z" fill="#A7A9AC"/>
<path d="M95.3616 60.599C95.1247 60.4544 95.0485 60.1438 95.1908 59.9046C95.3344 59.6648 95.6428 59.5874 95.8809 59.732L109.932 68.252C109.932 68.2526 109.932 68.2526 109.933 68.2526C110.17 68.3972 110.247 68.7078 110.103 68.947C109.959 69.1867 109.651 69.2641 109.413 69.1195L95.3622 60.5996C95.3622 60.599 95.3616 60.599 95.3616 60.599Z" fill="#A7A9AC"/>
<path d="M110.828 69.9788C110.591 69.8343 110.514 69.5237 110.657 69.2845C110.801 69.0447 111.109 68.9673 111.347 69.1119L124.019 76.7959C124.02 76.7965 124.02 76.7965 124.02 76.7965C124.257 76.9411 124.334 77.2517 124.191 77.4909C124.047 77.7306 123.739 77.808 123.501 77.6634L110.828 69.9794C110.828 69.9788 110.828 69.9788 110.828 69.9788Z" fill="#A7A9AC"/>
<path d="M93.9403 62.973C93.7034 62.8284 93.6271 62.5178 93.7701 62.2786C93.9137 62.0388 94.2221 61.9615 94.4602 62.1061L114.273 74.1199C114.273 74.1205 114.273 74.1205 114.274 74.1205C114.511 74.2651 114.587 74.5757 114.444 74.8149C114.301 75.0547 113.992 75.132 113.754 74.9874L93.9414 62.9736C93.9409 62.9736 93.9409 62.9736 93.9403 62.973Z" fill="#A7A9AC"/>
<path d="M99.586 51.7191C99.2782 51.5311 99.1789 51.1283 99.3645 50.8177C99.5506 50.5065 99.9517 50.4059 100.261 50.5934L125.991 66.1951C125.992 66.1957 125.992 66.1957 125.992 66.1957C126.3 66.3831 126.399 66.7865 126.214 67.0971C126.028 67.4083 125.627 67.5088 125.318 67.3214L99.5872 51.7197C99.5866 51.7197 99.586 51.7197 99.586 51.7191Z" fill="#A7A9AC"/>
<path d="M92.4715 65.4818C92.2346 65.3372 92.1584 65.0266 92.3014 64.7874C92.4449 64.5476 92.7533 64.4703 92.9914 64.6148L102.898 70.6214C102.898 70.622 102.898 70.622 102.899 70.622C103.136 70.7666 103.212 71.0772 103.069 71.3164C102.926 71.5556 102.617 71.6335 102.379 71.489L92.4727 65.4824C92.4721 65.4824 92.4721 65.4818 92.4715 65.4818Z" fill="#A7A9AC"/>
<path d="M91.0505 67.8597C90.8136 67.7151 90.7374 67.4045 90.8798 67.1653C91.0228 66.9255 91.3318 66.8482 91.5699 66.9928L95.2836 69.2443C95.2842 69.2449 95.2842 69.2449 95.2842 69.2449C95.5217 69.3895 95.5979 69.7001 95.4549 69.9393C95.312 70.1785 95.003 70.2564 94.7649 70.1118L91.0511 67.8603C91.0511 67.8603 91.0505 67.8603 91.0505 67.8597Z" fill="#A7A9AC"/>
<path d="M96.1792 70.9691C95.9423 70.8245 95.8661 70.5139 96.0085 70.2747C96.1514 70.0349 96.4604 69.9576 96.6985 70.1021L119.708 84.0545C119.709 84.0551 119.709 84.0551 119.709 84.0551C119.946 84.1997 120.022 84.5103 119.879 84.7495C119.736 84.9893 119.427 85.0667 119.189 84.9221L96.1804 70.9697C96.1798 70.9697 96.1798 70.9691 96.1792 70.9691Z" fill="#A7A9AC"/>
<path d="M89.629 70.2376C89.3921 70.093 89.3159 69.7824 89.4588 69.5433C89.6018 69.3035 89.9108 69.2261 90.1489 69.3707L107.665 79.9916C107.665 79.9922 107.665 79.9922 107.666 79.9922C107.903 80.1368 107.979 80.4473 107.836 80.6865C107.693 80.9263 107.384 81.0037 107.146 80.8591L89.6302 70.2382C89.6296 70.2376 89.6296 70.2376 89.629 70.2376Z" fill="#A7A9AC"/>
<path d="M87.9442 73.1029C87.7073 72.9583 87.6311 72.6477 87.774 72.4085C87.917 72.1687 88.226 72.0913 88.4641 72.2359L98.3701 78.2426C98.3707 78.2432 98.3707 78.2432 98.3713 78.2432C98.6082 78.3878 98.6845 78.6984 98.5421 78.9376C98.3991 79.1768 98.0901 79.2547 97.852 79.1102L87.9459 73.1035C87.9448 73.1035 87.9442 73.1029 87.9442 73.1029Z" fill="#A7A9AC"/>
<path d="M86.5225 75.4777C86.2856 75.3331 86.2094 75.0225 86.3524 74.7834C86.4954 74.5442 86.8044 74.4662 87.0425 74.6108L97.648 81.0411C97.6486 81.0417 97.6486 81.0417 97.6486 81.0417C97.8861 81.1863 97.9623 81.4975 97.8193 81.7361C97.6764 81.9753 97.3674 82.0532 97.1293 81.9086L86.5237 75.4783C86.5231 75.4783 86.5225 75.4777 86.5225 75.4777Z" fill="#A7A9AC"/>
<path d="M108.88 89.0353C108.643 88.8908 108.567 88.5802 108.71 88.341C108.853 88.1018 109.162 88.0238 109.4 88.1684L115.181 91.6742C115.182 91.6748 115.182 91.6748 115.182 91.6748C115.419 91.8194 115.495 92.13 115.352 92.3692C115.209 92.609 114.9 92.6863 114.662 92.5417L108.881 89.0359C108.881 89.0353 108.881 89.0353 108.88 89.0353Z" fill="#A7A9AC"/>
<path d="M98.0515 82.47C97.8146 82.3255 97.7384 82.0149 97.8808 81.7757C98.0238 81.5359 98.3328 81.4585 98.5708 81.6031L108.372 87.546C108.372 87.5466 108.372 87.5466 108.373 87.5466C108.61 87.6912 108.686 88.0018 108.544 88.241C108.401 88.4808 108.092 88.5581 107.854 88.4135L98.0527 82.4706C98.0521 82.4706 98.0521 82.47 98.0515 82.47Z" fill="#A7A9AC"/>
<path d="M85.1016 77.8548C84.8647 77.7102 84.7884 77.3996 84.9308 77.1604C85.0738 76.9207 85.3828 76.8433 85.6209 76.9879L101.988 86.9126C102.255 87.059 102.303 87.3678 102.159 87.6076C102.016 87.8473 101.707 87.9247 101.469 87.7801L85.1022 77.8554C85.1022 77.8548 85.1016 77.8548 85.1016 77.8548Z" fill="#A7A9AC"/>
<path d="M102.759 88.5646C102.522 88.4201 102.446 88.1095 102.589 87.8703C102.732 87.6311 103.041 87.5531 103.279 87.6977L111.606 92.747C111.606 92.7476 111.606 92.7476 111.607 92.7476C111.844 92.8922 111.92 93.2027 111.777 93.4419C111.634 93.6817 111.325 93.7591 111.087 93.6145L102.76 88.5652C102.76 88.5652 102.76 88.5652 102.759 88.5646Z" fill="#A7A9AC"/>
<g opacity="0.63">
<path opacity="0.63" d="M100.534 105.976L50.6736 119.949L28.1833 55.1024L79.5746 35.1221L100.534 105.976Z" fill="white"/>
<path opacity="0.63" d="M100.62 105.87L50.6906 119.911L28.2737 54.778L79.6614 35.0166L100.62 105.87Z" fill="#FDFDFD"/>
<path opacity="0.63" d="M100.707 105.767L50.7078 119.875L28.3635 54.4567L79.7477 34.9131L100.707 105.767Z" fill="#FBFBFB"/>
<path opacity="0.63" d="M100.793 105.664L50.7249 119.84L28.4539 54.1352L79.8339 34.8105L100.793 105.664Z" fill="#F8F9F9"/>
<path opacity="0.63" d="M100.879 105.557L50.7426 119.801L28.5442 53.81L79.9201 34.7031L100.879 105.557Z" fill="#F6F7F7"/>
<path opacity="0.63" d="M100.965 105.451L50.7597 119.763L28.634 53.4862L80.007 34.5977L100.965 105.451Z" fill="#F4F5F5"/>
<path opacity="0.63" d="M101.052 105.346L50.7771 119.725L28.7246 53.1623L80.0936 34.4922L101.052 105.346Z" fill="#F2F2F3"/>
<path opacity="0.63" d="M101.138 105.244L50.7941 119.691L28.8149 52.8424L80.1796 34.3906L101.138 105.244Z" fill="#F0F0F1"/>
<path opacity="0.63" d="M101.225 105.137L50.8119 119.651L28.9048 52.5166L80.2659 34.2832L101.225 105.137Z" fill="#EDEEEF"/>
<path opacity="0.63" d="M101.311 105.031L50.829 119.614L28.9951 52.1928L80.3527 34.1777L101.311 105.031Z" fill="#EBECED"/>
<path opacity="0.63" d="M101.398 104.927L50.846 119.577L29.0854 51.8699L80.4389 34.0732L101.398 104.927Z" fill="#E9EAEB"/>
<path opacity="0.63" d="M101.484 104.821L50.8632 119.539L29.1753 51.5461L80.5252 33.9678L101.484 104.821Z" fill="#E7E8E8"/>
<path opacity="0.63" d="M101.57 104.718L50.8809 119.504L29.2656 51.2242L80.6114 33.8643L101.57 104.718Z" fill="#E5E6E6"/>
<path opacity="0.63" d="M101.657 104.612L50.8982 119.466L29.3562 50.9004L80.6979 33.7588L101.657 104.612Z" fill="#E3E4E4"/>
<path opacity="0.63" d="M101.743 104.507L50.9151 119.428L29.4458 50.5765L80.7845 33.6533L101.743 104.507Z" fill="#E0E2E2"/>
<path opacity="0.63" d="M101.83 104.401L50.9322 119.39L29.5361 50.2527L80.8707 33.5479L101.83 104.401Z" fill="#DEE0E0"/>
<path opacity="0.63" d="M101.916 104.296L50.9495 119.353L29.6267 49.9289L80.9571 33.4424L101.916 104.296Z" fill="#DCDDDE"/>
<path opacity="0.63" d="M102.002 104.191L50.9673 119.315L29.7166 49.606L81.0434 33.3379L102.002 104.191Z" fill="#DADBDC"/>
<path opacity="0.63" d="M102.088 104.088L50.9843 119.28L29.8069 49.2841L81.1302 33.2344L102.088 104.088Z" fill="#D8D9DA"/>
<path opacity="0.63" d="M102.175 103.982L51.0014 119.241L29.8972 48.9603L81.2164 33.1289L102.175 103.982Z" fill="#D5D7D8"/>
<path opacity="0.63" d="M102.262 103.877L51.0186 119.204L29.9871 48.6364L81.3027 33.0234L102.262 103.877Z" fill="#D3D5D6"/>
<path opacity="0.63" d="M81.3907 32.9191L30.0779 48.3135L51.0361 119.169L102.349 103.774L81.3907 32.9191Z" fill="#D1D3D4"/>
</g>
<path d="M81.5674 32.8869L30.2546 48.2812L51.2128 119.137L102.526 103.742L81.5674 32.8869Z" fill="white"/>
<path d="M70.2949 67.1249C70.032 67.2117 69.7478 67.0677 69.6609 66.8036C69.5735 66.5382 69.7165 66.2514 69.98 66.1633L74.7519 64.5699C74.7525 64.5699 74.7525 64.5698 74.7531 64.5693C75.016 64.4824 75.3002 64.6264 75.3871 64.8906C75.4745 65.1559 75.3315 65.4427 75.068 65.5308L70.2961 67.1243C70.2961 67.1249 70.2961 67.1249 70.2949 67.1249Z" fill="#A7A9AC"/>
<path d="M44.8288 60.8705C44.5653 60.958 44.2817 60.814 44.1949 60.5486C44.1074 60.2832 44.2504 59.9964 44.5139 59.9084L55.4899 56.2449C55.4905 56.2449 55.4911 56.2443 55.4911 56.2443C55.7546 56.1569 56.0382 56.3009 56.1256 56.5656C56.2131 56.831 56.0701 57.1178 55.8066 57.2059L44.8306 60.8693C44.8294 60.8699 44.8288 60.8705 44.8288 60.8705Z" fill="#A7A9AC"/>
<path d="M45.6955 63.5005C45.432 63.5879 45.1484 63.444 45.0616 63.1792C44.9741 62.9132 45.1171 62.627 45.3806 62.5389L60.9489 57.3433C60.9495 57.3433 60.9495 57.3433 60.9501 57.3427C61.213 57.2559 61.4972 57.3993 61.584 57.6646C61.6715 57.93 61.5285 58.2168 61.265 58.3049L45.6967 63.5005C45.6961 63.5005 45.6955 63.5005 45.6955 63.5005Z" fill="#A7A9AC"/>
<path d="M62.8318 57.7831C62.5688 57.87 62.2847 57.7266 62.1978 57.4618C62.1104 57.1958 62.2534 56.9096 62.5169 56.8216L76.558 52.1353C76.5586 52.1353 76.5586 52.1353 76.5592 52.1347C76.8221 52.0479 77.1063 52.1913 77.1932 52.456C77.2806 52.722 77.1376 53.0082 76.8741 53.0963L62.8335 57.7825C62.8323 57.7825 62.8323 57.7825 62.8318 57.7831Z" fill="#A7A9AC"/>
<path d="M46.5622 66.1373C46.2987 66.2247 46.0151 66.0807 45.9283 65.8154C45.8408 65.55 45.9838 65.2632 46.2473 65.1751L68.1999 57.8482C68.2005 57.8482 68.2005 57.8482 68.2011 57.8476C68.464 57.7608 68.7481 57.9041 68.835 58.1695C68.9224 58.4349 68.7794 58.7217 68.5159 58.8092L46.5634 66.1367C46.5628 66.1373 46.5622 66.1373 46.5622 66.1373Z" fill="#A7A9AC"/>
<path d="M41.7517 54.4922C41.4096 54.6053 41.0415 54.4184 40.9281 54.0745C40.8147 53.7294 41.0002 53.3575 41.3423 53.2433L69.8516 43.7279C69.8522 43.7279 69.8522 43.7279 69.8534 43.7273C70.1949 43.6143 70.5635 43.8011 70.677 44.145C70.7904 44.4901 70.6049 44.862 70.2628 44.9763L41.7529 54.4916C41.7523 54.4922 41.7517 54.4922 41.7517 54.4922Z" fill="#A7A9AC"/>
<path d="M47.4939 68.8875C47.2304 68.975 46.9468 68.8304 46.8599 68.5662C46.7725 68.3002 46.9155 68.014 47.179 67.926L58.1549 64.2625C58.1555 64.2625 58.1561 64.2619 58.1561 64.2619C58.4196 64.1744 58.7032 64.3184 58.79 64.5838C58.8775 64.8492 58.7345 65.136 58.471 65.224L47.495 68.8875C47.4944 68.8875 47.4944 68.8875 47.4939 68.8875Z" fill="#A7A9AC"/>
<path d="M48.3608 71.5231C48.0973 71.6105 47.8137 71.4659 47.7269 71.2018C47.6394 70.9364 47.7824 70.6496 48.0459 70.5615L52.1609 69.1883C52.1615 69.1883 52.1621 69.1877 52.1621 69.1877C52.4256 69.1002 52.7098 69.2442 52.7966 69.509C52.884 69.7744 52.7411 70.0612 52.4776 70.1492L48.3626 71.5225C48.3614 71.5231 48.3608 71.5231 48.3608 71.5231Z" fill="#A7A9AC"/>
<path d="M54.0432 69.6265C53.7797 69.7139 53.4961 69.5693 53.4092 69.3052C53.3218 69.0398 53.4648 68.753 53.7283 68.6649L79.2228 60.1558C79.2234 60.1558 79.2234 60.1558 79.224 60.1552C79.4869 60.0683 79.7711 60.2123 79.8579 60.4765C79.9453 60.7419 79.8024 61.0287 79.5389 61.1167L54.0444 69.6265C54.0438 69.6265 54.0438 69.6265 54.0432 69.6265Z" fill="#A7A9AC"/>
<path d="M49.228 74.1557C48.9645 74.2432 48.6809 74.0986 48.5941 73.8338C48.5066 73.5684 48.6496 73.2816 48.9131 73.1936L68.3199 66.7163C68.3205 66.7163 68.3205 66.7163 68.3211 66.7157C68.584 66.6289 68.8682 66.7729 68.955 67.037C69.0425 67.3024 68.8995 67.5892 68.636 67.6773L49.2292 74.1557C49.2286 74.1557 49.228 74.1557 49.228 74.1557Z" fill="#A7A9AC"/>
<path d="M50.2917 77.3103C50.0282 77.3978 49.7446 77.2532 49.6578 76.989C49.5703 76.7236 49.7133 76.4368 49.9768 76.3488L60.9528 72.6853C60.9534 72.6853 60.954 72.6847 60.954 72.6847C61.2175 72.5972 61.5011 72.7418 61.5879 73.006C61.6754 73.2714 61.5324 73.5582 61.2689 73.6462L50.2929 77.3097C50.2917 77.3103 50.2917 77.3103 50.2917 77.3103Z" fill="#A7A9AC"/>
<path d="M51.1577 79.9468C50.8942 80.0342 50.6106 79.8896 50.5237 79.6248C50.4363 79.3595 50.5793 79.0727 50.8428 78.9846L62.5933 75.0623C62.5939 75.0623 62.5945 75.0617 62.5945 75.0617C62.858 74.9743 63.1421 75.1182 63.229 75.383C63.3164 75.6484 63.1735 75.9352 62.91 76.0227L51.1594 79.945C51.1583 79.9467 51.1583 79.9468 51.1577 79.9468Z" fill="#A7A9AC"/>
<path d="M75.9299 71.678C75.667 71.7649 75.3828 71.6209 75.296 71.3561C75.2085 71.0908 75.3515 70.804 75.615 70.7165L82.0205 68.5786C82.0211 68.5786 82.0211 68.5786 82.0217 68.578C82.2846 68.4912 82.5688 68.6352 82.6556 68.8999C82.7431 69.1653 82.6001 69.4521 82.3366 69.5402L75.9311 71.678C75.9305 71.6774 75.9305 71.6774 75.9299 71.678Z" fill="#A7A9AC"/>
<path d="M63.9321 75.6819C63.6686 75.7694 63.385 75.6248 63.2982 75.3606C63.2107 75.0952 63.3537 74.8084 63.6172 74.7204L74.4768 71.0962C74.4774 71.0962 74.4774 71.0962 74.4779 71.0956C74.7409 71.0088 75.025 71.1527 75.1119 71.4169C75.1993 71.6823 75.0563 71.9691 74.7928 72.0571L63.9333 75.6813C63.9327 75.6819 63.9327 75.6819 63.9321 75.6819Z" fill="#A7A9AC"/>
<path d="M52.0246 82.5818C51.7611 82.6692 51.4775 82.5246 51.3907 82.2605C51.3032 81.9951 51.4462 81.7083 51.7097 81.6202L69.8451 75.5672C70.1293 75.4583 70.3934 75.6231 70.4809 75.8885C70.5683 76.1539 70.4253 76.4407 70.1618 76.5287L52.0258 82.5812C52.0252 82.5812 52.0246 82.5818 52.0246 82.5818Z" fill="#A7A9AC"/>
<path d="M71.5898 76.0497C71.3269 76.1365 71.0427 75.9925 70.9559 75.7278C70.8684 75.4624 71.0114 75.1756 71.2749 75.0875L80.5015 72.0083C80.5021 72.0083 80.5021 72.0083 80.5027 72.0077C80.7656 71.9209 81.0498 72.0648 81.1367 72.329C81.2241 72.5944 81.0811 72.8812 80.8176 72.9693L71.591 76.0485C71.5904 76.0491 71.5904 76.0491 71.5898 76.0497Z" fill="#A7A9AC"/>
<path d="M105.942 125.334H39.1842C36.421 125.334 34.1387 123.123 33.9833 120.295L32.5583 76.138C32.3905 73.0767 33.7706 70.4688 36.7619 70.4688H108.365C111.356 70.4688 113.733 73.0451 113.566 76.1064L111.143 120.296C110.988 123.123 108.706 125.334 105.942 125.334Z" fill="#FFC107"/>
<path d="M57.1297 66.8115H39.3677C35.3981 66.8115 32.1799 69.9228 32.1799 73.7612V86.1708L65.4701 74.3098L61.8904 69.2421C60.8163 67.7213 59.0344 66.8115 57.1297 66.8115Z" fill="#FFC107"/>
<path d="M109.731 75.4053H38.6111V84.3667H109.731V75.4053Z" fill="#DC7707"/>
<path d="M108.029 77.0527H35.9631V120.763H108.029V77.0527Z" fill="white"/>
<path d="M108.7 135.576H37.9393C35.0101 135.576 32.5913 133.365 32.4271 130.537L29.8595 86.3477C29.6816 83.2863 32.2008 80.71 35.3717 80.71H111.268C114.439 80.71 116.958 83.2863 116.78 86.3477L114.212 130.537C114.049 133.365 111.629 135.576 108.7 135.576Z" fill="#FFC107"/>
<g filter="url(#filter0_d)">
<path d="M52.6302 102.872H49.5814V111.164H47.5306V102.872H44.5228V101.211H52.6302V102.872ZM58.6048 109.113H55.0091L54.3255 111.164H52.1448L55.8499 101.211H57.7503L61.4759 111.164H59.2952L58.6048 109.113ZM55.5628 107.452H58.0511L56.8001 103.727L55.5628 107.452ZM57.8118 100.664H56.1917L54.305 98.5449H56.4583L57.8118 100.664ZM64.5862 111.164H62.5355V101.211H64.5862V111.164ZM72.0306 109.517H76.3851V111.164H69.9798V101.211H72.0306V109.517ZM79.7484 111.164H77.6976V101.211H79.7484V111.164ZM87.6439 106.851H83.7064V109.517H88.3275V111.164H81.6556V101.211H88.3138V102.872H83.7064V105.244H87.6439V106.851ZM87.7327 100.438V100.521H86.1605L85.1077 99.5293L84.055 100.521H82.5101V100.411L84.5335 98.5244H85.6819L87.7327 100.438ZM84.014 112.695C84.014 112.422 84.1165 112.196 84.3216 112.019C84.5267 111.841 84.791 111.752 85.1146 111.752C85.4427 111.752 85.7093 111.841 85.9144 112.019C86.1194 112.196 86.222 112.422 86.222 112.695C86.222 112.964 86.1194 113.19 85.9144 113.372C85.7139 113.554 85.4472 113.646 85.1146 113.646C84.7819 113.646 84.5153 113.554 84.3148 113.372C84.1142 113.19 84.014 112.964 84.014 112.695ZM97.0638 101.211V107.767C97.0638 108.856 96.722 109.717 96.0384 110.351C95.3594 110.984 94.4297 111.301 93.2493 111.301C92.0872 111.301 91.1644 110.993 90.4808 110.378C89.7972 109.763 89.4486 108.917 89.4349 107.842V101.211H91.4857V107.78C91.4857 108.432 91.6406 108.908 91.9505 109.209C92.265 109.505 92.6979 109.653 93.2493 109.653C94.4023 109.653 94.9879 109.047 95.0062 107.835V101.211H97.0638Z" fill="#DC7707"/>
</g>
<path d="M35.3717 81.6243H111.268C114.16 81.6243 116.485 83.774 116.741 86.4736L116.78 85.7988C116.958 82.7375 114.439 80.1611 111.268 80.1611H35.3717C32.2008 80.1611 29.6816 82.7375 29.8595 85.7988L29.8984 86.4736C30.1543 83.774 32.4797 81.6243 35.3717 81.6243Z" fill="#FBBC6C"/>
<path d="M117.145 87.8979C117.067 87.0756 116.778 86.3163 116.359 85.6416L113.81 129.523C113.645 132.35 111.226 134.562 108.297 134.562H37.5358C35.5419 134.562 33.8037 133.524 32.833 131.977C33.0055 134.797 35.4196 137 38.3429 137H109.104C112.033 137 114.452 134.789 114.616 131.961L117.184 87.7717C117.19 87.6706 117.169 87.576 117.169 87.476L117.145 87.8979Z" fill="#EA891F"/>
<defs>
<filter id="filter0_d" x="43.5227" y="98.5244" width="53.541" height="16.1211" filterUnits="userSpaceOnUse" color-interpolation-filters="sRGB">
<feFlood flood-opacity="0" result="BackgroundImageFix"/>
<feColorMatrix in="SourceAlpha" type="matrix" values="0 0 0 0 0 0 0 0 0 0 0 0 0 0 0 0 0 0 127 0"/>
<feOffset dx="-1" dy="1"/>
<feColorMatrix type="matrix" values="0 0 0 0 1 0 0 0 0 1 0 0 0 0 1 0 0 0 0.46 0"/>
<feBlend mode="normal" in2="BackgroundImageFix" result="effect1_dropShadow"/>
<feBlend mode="normal" in="SourceGraphic" in2="effect1_dropShadow" result="shape"/>
</filter>
</defs>
</svg>
