<svg width="64" height="64" viewBox="0 0 64 64" fill="none" xmlns="http://www.w3.org/2000/svg">
<rect opacity="0.2" width="64" height="64" rx="9" fill="#FF63A5"/>
<path fill-rule="evenodd" clip-rule="evenodd" d="M17 10C13.134 10 10 13.134 10 17V47C10 50.866 13.134 54 17 54H47C50.866 54 54 50.866 54 47V17C54 13.134 50.866 10 47 10H17ZM21 27C19.8954 27 19 27.8954 19 29V44C19 45.1046 19.8954 46 21 46C22.1046 46 23 45.1046 23 44V29C23 27.8954 22.1046 27 21 27ZM30 21C30 19.8954 30.8954 19 32 19C33.1046 19 34 19.8954 34 21V44C34 45.1046 33.1046 46 32 46C30.8954 46 30 45.1046 30 44V21ZM43 33C41.8954 33 41 33.8954 41 35V44C41 45.1046 41.8954 46 43 46C44.1046 46 45 45.1046 45 44V35C45 33.8954 44.1046 33 43 33Z" fill="#D30059"/>
</svg>
