<svg width="1549" height="72" viewBox="0 0 1549 72" fill="none" xmlns="http://www.w3.org/2000/svg">
<path d="M40.65 0H39.5H38.5H37.34H36.35H35.19H33.04L0 71.09H2.15H3.31H4.3H5.46H6.46H7.61H9.77L42.81 0H40.65Z" fill="#EFEFEF"/>
<path d="M69.61 0H68.45H67.46H66.3H65.31H64.15H62L28.96 71.09H31.11H32.27H33.26H34.42H35.41H36.57H38.72L71.76 0H69.61Z" fill="#EFEFEF"/>
<path d="M98.5702 0H97.4102H96.4202H95.2602H94.2602H93.1102H90.9502L57.9102 71.09H60.0702H61.2202H62.2202H63.3802H64.3702H65.5302H67.6802L100.72 0H98.5702Z" fill="#EFEFEF"/>
<path d="M127.52 0H126.37H125.37H124.21H123.22H122.06H119.91L86.8701 71.09H89.0201H90.1801H91.1701H92.3301H93.3301H94.4801H96.6401L129.68 0H127.52Z" fill="#EFEFEF"/>
<path d="M156.48 0H155.32H154.33H153.17H152.18H151.02H148.87L115.83 71.09H117.98H119.14H120.13H121.29H122.28H123.44H125.59L158.63 0H156.48Z" fill="#EFEFEF"/>
<path d="M185.44 0H184.28H183.28H182.13H181.13H179.97H177.82L144.78 71.09H146.93H148.09H149.09H150.24H151.24H152.4H154.55L187.59 0H185.44Z" fill="#EFEFEF"/>
<path d="M214.39 0H213.24H212.24H211.08H210.09H208.93H206.78L173.74 71.09H175.89H177.05H178.04H179.2H180.2H181.35H183.51L216.55 0H214.39Z" fill="#EFEFEF"/>
<path d="M243.35 0H242.19H241.2H240.04H239.05H237.89H235.74L202.7 71.09H204.85H206.01H207H208.16H209.15H210.31H212.46L245.5 0H243.35Z" fill="#EFEFEF"/>
<path d="M272.31 0H271.15H270.15H269H268H266.84H264.69L231.65 71.09H233.8H234.96H235.96H237.11H238.11H239.27H241.42L274.46 0H272.31Z" fill="#EFEFEF"/>
<path d="M301.26 0H300.11H299.11H297.95H296.96H295.8H293.65L260.61 71.09H262.76H263.92H264.91H266.07H267.07H268.22H270.38L303.42 0H301.26Z" fill="#EFEFEF"/>
<path d="M330.22 0H329.06H328.07H326.91H325.92H324.76H322.61L289.57 71.09H291.72H292.88H293.87H295.03H296.02H297.18H299.33L332.37 0H330.22Z" fill="#EFEFEF"/>
<path d="M359.18 0H358.02H357.02H355.87H354.87H353.71H351.56L318.52 71.09H320.67H321.83H322.83H323.98H324.98H326.14H328.29L361.33 0H359.18Z" fill="#EFEFEF"/>
<path d="M388.13 0H386.97H385.98H384.82H383.83H382.67H380.52L347.48 71.09H349.63H350.79H351.78H352.94H353.93H355.09H357.24L390.28 0H388.13Z" fill="#EFEFEF"/>
<path d="M417.09 0H415.93H414.94H413.78H412.78H411.63H409.47L376.43 71.09H378.59H379.74H380.74H381.9H382.89H384.05H386.2L419.24 0H417.09Z" fill="#EFEFEF"/>
<path d="M446.05 0H444.89H443.89H442.74H441.74H440.58H438.43L405.39 71.09H407.54H408.7H409.7H410.85H411.85H413.01H415.16L448.2 0H446.05Z" fill="#EFEFEF"/>
<path d="M475 0H473.84H472.85H471.69H470.7H469.54H467.39L434.35 71.09H436.5H437.66H438.65H439.81H440.8H441.96H444.11L477.15 0H475Z" fill="#EFEFEF"/>
<path d="M503.96 0H502.8H501.81H500.65H499.65H498.5H496.34L463.3 71.09H465.46H466.61H467.61H468.77H469.76H470.92H473.07L506.11 0H503.96Z" fill="#EFEFEF"/>
<path d="M532.92 0H531.76H530.76H529.61H528.61H527.45H525.3L492.26 71.09H494.41H495.57H496.57H497.72H498.72H499.88H502.03L535.07 0H532.92Z" fill="#EFEFEF"/>
<path d="M561.87 0H560.71H559.72H558.56H557.57H556.41H554.26L521.22 71.09H523.37H524.53H525.52H526.68H527.67H528.83H530.98L564.02 0H561.87Z" fill="#EFEFEF"/>
<path d="M590.83 0H589.67H588.68H587.52H586.52H585.37H583.21L550.17 71.09H552.33H553.48H554.48H555.64H556.63H557.79H559.94L592.98 0H590.83Z" fill="#EFEFEF"/>
<path d="M619.78 0H618.63H617.63H616.47H615.48H614.32H612.17L579.13 71.09H581.28H582.44H583.43H584.59H585.59H586.74H588.9L621.94 0H619.78Z" fill="#EFEFEF"/>
<path d="M648.74 0H647.58H646.59H645.43H644.44H643.28H641.13L608.09 71.09H610.24H611.4H612.39H613.55H614.54H615.7H617.85L650.89 0H648.74Z" fill="#EFEFEF"/>
<path d="M677.7 0H676.54H675.55H674.39H673.39H672.24H670.08L637.04 71.09H639.2H640.35H641.35H642.51H643.5H644.66H646.81L679.85 0H677.7Z" fill="#EFEFEF"/>
<path d="M706.65 0H705.5H704.5H703.34H702.35H701.19H699.04L666 71.09H668.15H669.31H670.3H671.46H672.46H673.61H675.77L708.81 0H706.65Z" fill="#EFEFEF"/>
<path d="M735.61 0H734.45H733.46H732.3H731.31H730.15H728L694.96 71.09H697.11H698.27H699.26H700.42H701.41H702.57H704.72L737.76 0H735.61Z" fill="#EFEFEF"/>
<path d="M764.57 0H763.41H762.42H761.26H760.26H759.11H756.95L723.91 71.09H726.07H727.22H728.22H729.38H730.37H731.53H733.68L766.72 0H764.57Z" fill="#EFEFEF"/>
<path d="M793.52 0H792.37H791.37H790.21H789.22H788.06H785.91L752.87 71.09H755.02H756.18H757.17H758.33H759.33H760.48H762.64L795.68 0H793.52Z" fill="#EFEFEF"/>
<path d="M822.48 0H821.32H820.33H819.17H818.18H817.02H814.87L781.83 71.09H783.98H785.14H786.13H787.29H788.28H789.44H791.59L824.63 0H822.48Z" fill="#EFEFEF"/>
<path d="M851.44 0H850.28H849.28H848.13H847.13H845.97H843.82L810.78 71.09H812.93H814.09H815.09H816.24H817.24H818.4H820.55L853.59 0H851.44Z" fill="#EFEFEF"/>
<path d="M880.39 0H879.24H878.24H877.08H876.09H874.93H872.78L839.74 71.09H841.89H843.05H844.04H845.2H846.2H847.35H849.51L882.55 0H880.39Z" fill="#EFEFEF"/>
<path d="M909.35 0H908.19H907.2H906.04H905.05H903.89H901.74L868.7 71.09H870.85H872.01H873H874.16H875.15H876.31H878.46L911.5 0H909.35Z" fill="#EFEFEF"/>
<path d="M938.31 0H937.15H936.15H935H934H932.84H930.69L897.65 71.09H899.8H900.96H901.96H903.11H904.11H905.27H907.42L940.46 0H938.31Z" fill="#EFEFEF"/>
<path d="M967.26 0H966.11H965.11H963.95H962.96H961.8H959.65L926.61 71.09H928.76H929.92H930.91H932.07H933.07H934.22H936.38L969.42 0H967.26Z" fill="#EFEFEF"/>
<path d="M996.22 0H995.06H994.07H992.91H991.92H990.76H988.61L955.57 71.09H957.72H958.88H959.87H961.03H962.02H963.18H965.33L998.37 0H996.22Z" fill="#EFEFEF"/>
<path d="M1025.18 0H1024.02H1023.02H1021.87H1020.87H1019.71H1017.56L984.52 71.09H986.669H987.83H988.83H989.979H990.979H992.14H994.289L1027.33 0H1025.18Z" fill="#EFEFEF"/>
<path d="M1054.13 0H1052.97H1051.98H1050.82H1049.83H1048.67H1046.52L1013.48 71.09H1015.63H1016.79H1017.78H1018.94H1019.93H1021.09H1023.24L1056.28 0H1054.13Z" fill="#EFEFEF"/>
<path d="M1083.09 0H1081.93H1080.94H1079.78H1078.78H1077.63H1075.47L1042.43 71.09H1044.59H1045.74H1046.74H1047.9H1048.89H1050.05H1052.2L1085.24 0H1083.09Z" fill="#EFEFEF"/>
<path d="M1112.05 0H1110.89H1109.89H1108.74H1107.74H1106.58H1104.43L1071.39 71.09H1073.54H1074.7H1075.7H1076.85H1077.85H1079.01H1081.16L1114.2 0H1112.05Z" fill="#EFEFEF"/>
<path d="M1141 0H1139.84H1138.85H1137.69H1136.7H1135.54H1133.39L1100.35 71.09H1102.5H1103.66H1104.65H1105.81H1106.8H1107.96H1110.11L1143.15 0H1141Z" fill="#EFEFEF"/>
<path d="M1169.96 0H1168.8H1167.81H1166.65H1165.65H1164.5H1162.34L1129.3 71.09H1131.46H1132.61H1133.61H1134.77H1135.76H1136.92H1139.07L1172.11 0H1169.96Z" fill="#EFEFEF"/>
<path d="M1198.92 0H1197.76H1196.76H1195.61H1194.61H1193.45H1191.3L1158.26 71.09H1160.41H1161.57H1162.57H1163.72H1164.72H1165.88H1168.03L1201.07 0H1198.92Z" fill="#EFEFEF"/>
<path d="M1227.87 0H1226.71H1225.72H1224.56H1223.57H1222.41H1220.26L1187.22 71.09H1189.37H1190.53H1191.52H1192.68H1193.67H1194.83H1196.98L1230.02 0H1227.87Z" fill="#EFEFEF"/>
<path d="M1256.83 0H1255.67H1254.68H1253.52H1252.52H1251.37H1249.21L1216.17 71.09H1218.33H1219.48H1220.48H1221.64H1222.63H1223.79H1225.94L1258.98 0H1256.83Z" fill="#EFEFEF"/>
<path d="M1285.78 0H1284.63H1283.63H1282.47H1281.48H1280.32H1278.17L1245.13 71.09H1247.28H1248.44H1249.43H1250.59H1251.59H1252.74H1254.9L1287.94 0H1285.78Z" fill="#EFEFEF"/>
<path d="M1314.74 0H1313.58H1312.59H1311.43H1310.44H1309.28H1307.13L1274.09 71.09H1276.24H1277.4H1278.39H1279.55H1280.54H1281.7H1283.85L1316.89 0H1314.74Z" fill="#EFEFEF"/>
<path d="M1343.7 0H1342.54H1341.55H1340.39H1339.39H1338.24H1336.08L1303.04 71.09H1305.2H1306.35H1307.35H1308.51H1309.5H1310.66H1312.81L1345.85 0H1343.7Z" fill="#EFEFEF"/>
<path d="M1372.65 0H1371.5H1370.5H1369.34H1368.35H1367.19H1365.04L1332 71.09H1334.15H1335.31H1336.3H1337.46H1338.46H1339.61H1341.77L1374.81 0H1372.65Z" fill="#EFEFEF"/>
<path d="M1401.61 0H1400.45H1399.46H1398.3H1397.31H1396.15H1394L1360.96 71.09H1363.11H1364.27H1365.26H1366.42H1367.41H1368.57H1370.72L1403.76 0H1401.61Z" fill="#EFEFEF"/>
<path d="M1430.57 0H1429.41H1428.42H1427.26H1426.26H1425.11H1422.95L1389.91 71.09H1392.07H1393.22H1394.22H1395.38H1396.37H1397.53H1399.68L1432.72 0H1430.57Z" fill="#EFEFEF"/>
<path d="M1459.52 0H1458.37H1457.37H1456.21H1455.22H1454.06H1451.91L1418.87 71.09H1421.02H1422.18H1423.17H1424.33H1425.33H1426.48H1428.64L1461.68 0H1459.52Z" fill="#EFEFEF"/>
<path d="M1488.48 0H1487.32H1486.33H1485.17H1484.18H1483.02H1480.87L1447.83 71.09H1449.98H1451.14H1452.13H1453.29H1454.28H1455.44H1457.59L1490.63 0H1488.48Z" fill="#EFEFEF"/>
<path d="M1517.44 0H1516.28H1515.28H1514.13H1513.13H1511.97H1509.82L1476.78 71.09H1478.93H1480.09H1481.09H1482.24H1483.24H1484.4H1486.55L1519.59 0H1517.44Z" fill="#EFEFEF"/>
<path d="M1546.39 0H1545.24H1544.24H1543.08H1542.09H1540.93H1538.78L1505.74 71.09H1507.89H1509.05H1510.04H1511.2H1512.2H1513.35H1515.51L1548.55 0H1546.39Z" fill="#EFEFEF"/>
</svg>
