<svg width="99" height="106" viewBox="0 0 99 106" fill="none" xmlns="http://www.w3.org/2000/svg">
<path d="M57.6407 93.0937H22.1994C17.3105 93.0937 13.2111 89.401 12.7024 84.5386L5.71533 17.7579L10.8257 15.2739H68.6641L74.1247 17.7579L67.1376 84.5386C66.629 89.401 62.5296 93.0937 57.6407 93.0937Z" fill="url(#paint0_linear)"/>
<path d="M74.1247 17.7579L68.7584 15.2739H10.9718L5.71533 17.7579L6.14685 21.8816H62.3244C65.5334 21.8816 68.0361 24.66 67.7023 27.8515L61.7713 84.5386C61.2626 89.401 57.1632 93.0937 52.2743 93.0937H57.6407C62.5296 93.0937 66.629 89.401 67.1376 84.5386L73.6932 21.8813L74.1247 17.7579Z" fill="#E82403"/>
<path d="M1.32482 17.7572H78.5155C79.2473 17.7572 79.8403 17.1642 79.8403 16.4324V10.338C79.8403 9.60624 79.2473 9.01318 78.5155 9.01318H1.32482C0.593061 9.01318 0 9.60624 0 10.338V16.4324C0 17.164 0.593061 17.7572 1.32482 17.7572Z" fill="url(#paint1_linear)"/>
<path d="M54.1997 9.01424H25.6392L28.5005 2.51979C29.1751 0.988366 30.6907 0 32.3639 0H47.4746C49.148 0 50.6634 0.988366 51.3381 2.51979L54.1997 9.01424Z" fill="url(#paint2_linear)"/>
<path d="M51.34 2.51979C50.6652 0.988366 49.1498 0 47.4764 0H42.1846C43.858 0 45.3736 0.988366 46.0481 2.51979L48.9095 9.01424H54.2014L51.34 2.51979Z" fill="#E82403"/>
<path d="M68.7177 68.2847C74.7228 68.2847 79.9388 71.7259 82.497 76.7402C82.8695 77.4701 83.634 77.9138 84.452 77.8654C92.2572 77.4055 98.9612 83.63 98.9996 91.5338C99.0367 99.1378 92.6585 105.359 85.0545 105.359H53.5093C46.843 105.359 41.318 100.017 41.2921 93.3502C41.2682 87.2266 45.8767 82.0022 52.0178 81.3219C52.8631 81.2283 53.5535 80.6142 53.771 79.7919C55.521 73.1759 61.5588 68.2847 68.7177 68.2847Z" fill="url(#paint3_linear)"/>
<path d="M84.8868 77.8482C83.8163 77.8776 82.8086 77.2998 82.2954 76.36C79.6713 71.5535 74.5691 68.2861 68.7175 68.2861C63.5749 68.2861 59.0137 70.8123 56.2021 74.6867C58.747 72.8438 61.8726 71.7558 65.2481 71.7558C70.8974 71.7558 75.8485 74.8016 78.5452 79.3374C79.2648 80.5476 80.5689 81.2954 81.9766 81.3141C89.3705 81.4125 95.53 87.4756 95.53 95.0737C95.53 97.982 94.6202 100.681 93.074 102.905C96.6513 100.418 98.9994 96.2814 98.9994 91.6042C98.9996 83.8146 92.5268 77.6387 84.8868 77.8482Z" fill="#67CFFF"/>
<path d="M39.9197 68.7332C37.8265 68.7332 36.1294 67.0364 36.1294 64.943V33.9665C36.1294 31.8733 37.8263 30.1763 39.9197 30.1763C42.0129 30.1763 43.71 31.8731 43.71 33.9665V64.943C43.71 67.0362 42.0131 68.7332 39.9197 68.7332Z" fill="url(#paint4_linear)"/>
<path d="M25.8725 64.99C25.08 64.99 24.3942 64.3983 24.2962 63.5915L21.3194 39.092C21.2134 38.2205 21.8343 37.4279 22.7059 37.3219C23.5764 37.2182 24.3703 37.8366 24.4761 38.7085L27.4529 63.2079C27.5589 64.0794 26.938 64.8721 26.0664 64.978C26.0011 64.9861 25.9365 64.99 25.8725 64.99Z" fill="url(#paint5_linear)"/>
<path d="M53.9692 64.9903C53.905 64.9903 53.8403 64.9864 53.7753 64.9785C52.9036 64.8726 52.2826 64.0801 52.3888 63.2084L55.3658 38.709C55.4716 37.8373 56.2684 37.216 57.1359 37.3224C58.0076 37.4284 58.6287 38.2208 58.5225 39.0925L55.5455 63.592C55.4475 64.3984 54.7614 64.9903 53.9692 64.9903Z" fill="url(#paint6_linear)"/>
<defs>
<linearGradient id="paint0_linear" x1="40.925" y1="15.653" x2="39.92" y2="93.0937" gradientUnits="userSpaceOnUse">
<stop stop-color="#FF674D"/>
<stop offset="1" stop-color="#E72200"/>
</linearGradient>
<linearGradient id="paint1_linear" x1="39.9202" y1="9.01318" x2="39.9202" y2="17.7572" gradientUnits="userSpaceOnUse">
<stop stop-color="#B0E800"/>
<stop offset="1" stop-color="#98C800"/>
</linearGradient>
<linearGradient id="paint2_linear" x1="39.9194" y1="0" x2="39.9194" y2="9.01424" gradientUnits="userSpaceOnUse">
<stop stop-color="#DE2202"/>
<stop offset="1" stop-color="#CE270A"/>
</linearGradient>
<linearGradient id="paint3_linear" x1="70.1459" y1="68.2847" x2="70.1459" y2="105.359" gradientUnits="userSpaceOnUse">
<stop stop-color="#61D1FF"/>
<stop offset="1" stop-color="#1DB0ED"/>
</linearGradient>
<linearGradient id="paint4_linear" x1="39.9197" y1="30.1763" x2="39.9197" y2="68.7332" gradientUnits="userSpaceOnUse">
<stop stop-color="#FBCA2B"/>
<stop offset="1" stop-color="#FFC300"/>
</linearGradient>
<linearGradient id="paint5_linear" x1="24.3862" y1="37.3105" x2="24.3862" y2="64.99" gradientUnits="userSpaceOnUse">
<stop stop-color="#FBCA2B"/>
<stop offset="1" stop-color="#FFC300"/>
</linearGradient>
<linearGradient id="paint6_linear" x1="55.4556" y1="37.3105" x2="55.4556" y2="64.9903" gradientUnits="userSpaceOnUse">
<stop stop-color="#FBCA2B"/>
<stop offset="1" stop-color="#FFC300"/>
</linearGradient>
</defs>
</svg>
