<svg width="24" height="24" viewBox="0 0 24 24" fill="none" xmlns="http://www.w3.org/2000/svg">
<path opacity="0.8" fill-rule="evenodd" clip-rule="evenodd" d="M16.4109 2.76862L16.4119 3.51824C19.1665 3.73414 20.9862 5.6112 20.9891 8.48975L21 16.9155C21.0039 20.054 19.0322 21.985 15.8718 21.99L8.15188 22C5.01119 22.004 3.01482 20.027 3.01087 16.8796L3.00001 8.55272C2.99606 5.65517 4.75153 3.78311 7.50617 3.53024L7.50518 2.78061C7.5042 2.34083 7.83001 2.01 8.26444 2.01C8.69886 2.009 9.02468 2.33883 9.02567 2.77861L9.02666 3.47826L14.8914 3.47027L14.8904 2.77062C14.8894 2.33084 15.2152 2.001 15.6497 2C16.0742 1.999 16.4099 2.32884 16.4109 2.76862ZM19.4696 8.84158L4.52148 8.86157L4.52049 8.55072C4.51753 6.38281 5.58286 5.25138 7.50815 5.05847L7.50913 5.82809C7.50913 6.25887 7.83594 6.5977 8.27036 6.5967C8.70479 6.5967 9.02962 6.25687 9.02962 5.82609L9.02863 5.01749L14.8934 5.0095L14.8943 5.81909C14.8943 6.24888 15.2212 6.58871 15.6556 6.58771C16.0801 6.58771 16.4148 6.24688 16.4148 5.81709L16.4138 5.04748C18.349 5.21539 19.4272 6.34283 19.4696 8.49175V8.84158ZM8.97654 14.7227H9.55466C9.84633 14.7201 10.0768 14.6445 10.2461 14.4961C10.4179 14.3477 10.5039 14.1328 10.5039 13.8516C10.5039 13.5807 10.4323 13.3711 10.289 13.2227C10.1484 13.0716 9.93227 12.9961 9.6406 12.9961C9.38539 12.9961 9.17576 13.0703 9.0117 13.2188C8.84763 13.3646 8.7656 13.556 8.7656 13.793H7.81638C7.81638 13.5013 7.89321 13.2357 8.04685 12.9961C8.2031 12.7565 8.41925 12.5703 8.69529 12.4375C8.97394 12.3021 9.28513 12.2344 9.62888 12.2344C10.1966 12.2344 10.6419 12.3776 10.9648 12.6641C11.2903 12.9479 11.4531 13.3438 11.4531 13.8516C11.4531 14.1068 11.3711 14.3477 11.207 14.5742C11.0456 14.7982 10.8359 14.9675 10.5781 15.082C10.8906 15.1888 11.1276 15.3568 11.289 15.5859C11.4531 15.8151 11.5351 16.0885 11.5351 16.4063C11.5351 16.9167 11.3594 17.3229 11.0078 17.625C10.6588 17.9271 10.1992 18.0781 9.62888 18.0781C9.08201 18.0781 8.63409 17.9323 8.28513 17.6406C7.93618 17.349 7.7617 16.9609 7.7617 16.4766H8.71091C8.71091 16.7266 8.79425 16.9297 8.96091 17.0859C9.13019 17.2422 9.35675 17.3203 9.6406 17.3203C9.93487 17.3203 10.1666 17.2422 10.3359 17.0859C10.5052 16.9297 10.5898 16.7031 10.5898 16.4063C10.5898 16.1068 10.5013 15.8763 10.3242 15.7148C10.1471 15.5534 9.88409 15.4727 9.53513 15.4727H8.97654V14.7227ZM14.9961 18H14.0508V13.4336L12.6562 13.9102V13.1094L14.875 12.293H14.9961V18Z" fill="white"/>
</svg>
