<svg width="12" height="12" viewBox="0 0 12 12" fill="none" xmlns="http://www.w3.org/2000/svg">
<path d="M11.0545 4.39756L4.50177 10.9829C4.16099 11.3146 3.7131 11.5 3.24574 11.5H0.957623C0.831047 11.5 0.714207 11.4512 0.626577 11.3634C0.538947 11.2756 0.5 11.1585 0.5 11.0317L0.55842 8.71951C0.568157 8.26098 0.753153 7.83171 1.07446 7.50976L5.71885 2.8561C5.79675 2.77805 5.93306 2.77805 6.01095 2.8561L7.6399 4.47854C7.747 4.58488 7.90279 4.65415 8.06831 4.65415C8.42857 4.65415 8.71093 4.36146 8.71093 4.01024C8.71093 3.83463 8.64277 3.67854 8.53567 3.56146C8.50646 3.52244 6.95541 1.97805 6.95541 1.97805C6.85804 1.88049 6.85804 1.71463 6.95541 1.61707L7.60777 0.953659C8.21144 0.34878 9.18511 0.34878 9.78878 0.953659L11.0545 2.22195C11.6485 2.81707 11.6485 3.79268 11.0545 4.39756Z" fill="#42B814"/>
</svg>
