<svg width="44" height="35" viewBox="0 0 44 35" fill="none" xmlns="http://www.w3.org/2000/svg">
<path d="M41.4319 7.67383C41.4319 5.24019 39.4493 3.27103 36.999 3.27103H18.0026C17.9301 3.27103 17.8708 3.21869 17.8577 3.15327C17.4822 1.35421 15.875 0 13.9583 0H7.00259C4.55887 0 2.56965 1.96916 2.56965 4.4028V12.2533C2.56965 12.3121 2.53013 12.3645 2.47744 12.3907C0.909772 13.0187 -0.150706 14.615 0.020551 16.4009L1.44989 31.3103C1.6475 33.4037 3.41935 35 5.53372 35H38.0265C40.1409 35 41.9128 33.4037 42.1104 31.3103L43.981 11.8215C44.1523 10.0355 43.0918 8.43925 41.5241 7.81121C41.4714 7.79159 41.4319 7.73271 41.4319 7.67383ZM17.1924 5.23364C17.2122 5.2271 17.2319 5.23364 17.2517 5.23364H37.1505C38.3691 5.23364 39.3637 6.1757 39.4493 7.35981C39.4559 7.44486 39.3834 7.52336 39.2912 7.52336H29.8589C28.5283 7.52336 27.2307 7.91589 26.1176 8.6486L22.5936 10.9776C21.487 11.7103 20.1828 12.1028 18.8523 12.1028H4.6972C4.61157 12.1028 4.5457 12.0374 4.5457 11.9523V6.89533C4.5457 5.97944 5.2966 5.23364 6.21875 5.23364H17.1924Z" fill="#D30059"/>
</svg>
