<svg width="64" height="64" viewBox="0 0 64 64" fill="none" xmlns="http://www.w3.org/2000/svg">
<rect opacity="0.2" width="64" height="64" rx="9" fill="#FF63A5"/>
<rect x="10" y="10" width="44" height="44" rx="7" fill="#D30059"/>
<path fill-rule="evenodd" clip-rule="evenodd" d="M30.4453 21.8234C29.6409 21.8234 28.9565 22.3824 28.7645 23.1358H35.2237C35.0316 22.3824 34.3472 21.8234 33.5428 21.8234H30.4453ZM37.0485 23.1352H39.4257C41.947 23.1352 44 25.2131 44 27.765C44 27.765 43.928 28.8453 43.904 30.3497C43.9016 30.4688 43.8439 30.5855 43.7491 30.6559C43.1716 31.0825 42.6433 31.4349 42.5953 31.4592C40.6023 32.7959 38.2863 33.7364 35.8191 34.2043C35.6582 34.2359 35.4998 34.152 35.4181 34.0086C34.7266 32.8105 33.4347 32.0303 31.994 32.0303C30.5629 32.0303 29.259 32.802 28.5471 34.0013C28.4642 34.1423 28.3082 34.2237 28.1485 34.1933C25.7017 33.7243 23.3857 32.7849 21.4047 31.4713L20.2521 30.6693C20.1561 30.6086 20.096 30.4992 20.096 30.3777C20.06 29.7579 20 27.765 20 27.765C20 25.2131 22.053 23.1352 24.5743 23.1352H26.9395C27.1676 21.3732 28.6443 20 30.4452 20H33.5428C35.3437 20 36.8204 21.3732 37.0485 23.1352ZM43.5913 32.9778L43.5432 33.0021C41.118 34.6304 38.2006 35.7119 35.139 36.1616C34.7068 36.2223 34.2746 35.9428 34.1545 35.5054C33.8904 34.5089 33.038 33.8527 32.0175 33.8527H32.0055H31.9815C30.961 33.8527 30.1085 34.5089 29.8444 35.5054C29.7243 35.9428 29.2921 36.2223 28.8599 36.1616C25.7984 35.7119 22.8809 34.6304 20.4557 33.0021C20.4437 32.9899 20.3236 32.917 20.2276 32.9778C20.1195 33.0385 20.1195 33.1844 20.1195 33.1844L20.2036 39.3818C20.2036 41.9337 22.2446 43.9995 24.7659 43.9995H39.2211C41.7423 43.9995 43.7834 41.9337 43.7834 39.3818L43.8794 33.1844C43.8794 33.1844 43.8794 33.0385 43.7714 32.9778C43.7113 32.9413 43.6393 32.9535 43.5913 32.9778ZM32.8943 38.0704C32.8943 38.5808 32.4981 38.9818 31.9938 38.9818C31.5016 38.9818 31.0934 38.5808 31.0934 38.0704V36.5028C31.0934 36.0046 31.5016 35.5914 31.9938 35.5914C32.4981 35.5914 32.8943 36.0046 32.8943 36.5028V38.0704Z" fill="white"/>
</svg>
