<svg width="24" height="24" viewBox="0 0 24 24" fill="none" xmlns="http://www.w3.org/2000/svg">
<path d="M20.2845 10.7909C20.1683 10.8332 20.0584 10.8912 19.9587 10.9645C19.4438 11.3434 18.4838 12.3784 18.4838 12.3784C18.5133 12.3507 17.7924 13.0481 17.1315 13.6923C16.9462 13.8732 16.6345 13.7433 16.6323 13.4842V5.13656C16.6323 4.31832 15.9706 3.75388 15.1698 3.92211C14.5309 4.05637 14.1899 4.65078 14.1899 5.3615L14.1951 11.1768C14.1954 11.4453 13.978 11.6634 13.7095 11.664C13.4402 11.6646 13.2216 11.4465 13.2216 11.1772V3.13752C13.2216 2.35678 12.5948 1.84425 11.8397 2.04292C11.3216 2.1791 11.079 2.6668 11.079 3.28172V11.1921C11.079 11.46 10.8622 11.6773 10.5943 11.6778C10.3258 11.6784 10.1077 11.461 10.1075 11.1925L10.1023 4.85778C10.1023 4.17621 9.78092 3.57508 9.09967 3.55489C8.39167 3.5339 8.05073 4.12783 8.05073 4.83118L8.04133 11.2168C8.04095 11.4784 7.82899 11.6905 7.5673 11.691C7.3046 11.6916 7.09135 11.4788 7.09135 11.2161V7.19631C7.09135 6.48815 6.76194 5.95318 6.04994 5.95318C5.34161 5.95318 5.01221 6.48815 5.01221 7.19631L5.01301 17.1767C5.36821 22.3079 8.26895 23 11.3012 23C13.8134 23 15.8232 21.7538 16.9358 19.7618C17.079 19.5308 17.4661 18.922 17.9251 18.2008C18.578 17.1753 19.1705 16.2577 19.5862 15.6076C20.1343 14.7502 20.6361 14.0805 21.2568 13.2742C21.4295 13.0499 21.5726 12.8693 21.6409 12.7946C21.8278 12.5905 21.951 12.3366 21.9879 12.0624V12.0107C21.9879 11.021 21.2139 10.4513 20.2845 10.7909Z" fill="white"/>
</svg>
