<svg width="17" height="21" viewBox="0 0 17 21" fill="none" xmlns="http://www.w3.org/2000/svg">
<path d="M15.2845 8.79095C15.1683 8.83325 15.0584 8.89125 14.9587 8.96447C14.4438 9.34338 13.4838 10.3784 13.4838 10.3784C13.5133 10.3507 12.7924 11.0481 12.1315 11.6923C11.9462 11.8732 11.6345 11.7433 11.6323 11.4842V3.13656C11.6323 2.31832 10.9706 1.75388 10.1698 1.92211C9.53089 2.05637 9.18994 2.65078 9.18994 3.3615L9.19512 9.17678C9.19536 9.44534 8.97804 9.66335 8.70948 9.66397C8.44021 9.66459 8.22159 9.44648 8.22159 9.17721V1.13752C8.22159 0.356782 7.59482 -0.155754 6.83971 0.0429161C6.32157 0.179101 6.079 0.666803 6.079 1.28172V9.19209C6.079 9.45995 5.86216 9.67726 5.5943 9.67783C5.32579 9.67841 5.10774 9.46101 5.10752 9.19249L5.10232 2.85778C5.10232 2.17621 4.78092 1.57508 4.09967 1.55489C3.39167 1.5339 3.05073 2.12783 3.05073 2.83118L3.04133 9.21676C3.04095 9.47844 2.82899 9.69052 2.5673 9.69105C2.3046 9.69158 2.09135 9.47876 2.09135 9.21606V5.19631C2.09135 4.48815 1.76194 3.95318 1.04994 3.95318C0.341614 3.95318 0.012207 4.48815 0.012207 5.19631L0.0130081 15.1767C0.36821 20.3079 3.26895 21 6.30122 21C8.81343 21 10.8232 19.7538 11.9358 17.7618C12.079 17.5308 12.4661 16.922 12.9251 16.2008C13.578 15.1753 14.1705 14.2577 14.5862 13.6076C15.1343 12.7502 15.6361 12.0805 16.2568 11.2742C16.4295 11.0499 16.5726 10.8693 16.6409 10.7946C16.8278 10.5905 16.951 10.3366 16.9879 10.0624V10.0107C16.9879 9.02102 16.2139 8.45129 15.2845 8.79095Z" fill="#42B814"/>
</svg>
