<svg width="24" height="24" viewBox="0 0 24 24" fill="none" xmlns="http://www.w3.org/2000/svg">
<g id="Iconly/Bold/Edit">
<g id="Edit">
<path id="Edit_2" fill-rule="evenodd" clip-rule="evenodd" d="M19.054 9.47969C19.5151 9.01613 19.8642 8.43488 19.9761 7.79066C20.1538 6.76444 19.8314 5.78468 19.1321 5.08057L17.9481 3.89123C16.7662 2.70292 14.8327 2.70292 13.6508 3.89123L13.009 4.53752C12.8817 4.66554 12.8817 4.87306 13.009 5.00108L18.0282 10.0475C18.1555 10.1755 18.3619 10.1755 18.4893 10.0475L19.054 9.47969ZM16.9999 11.5543L9.36333 19.2231C8.83553 19.7527 8.1188 20.0511 7.37126 20.0511H3.72803C3.53396 20.0511 3.35015 19.9726 3.20434 19.8363C3.0688 19.6908 3 19.5049 3 19.3005L3.09755 15.6138C3.10679 14.8828 3.40766 14.1901 3.9221 13.6728L11.5187 6.03401C11.646 5.90599 11.8534 5.90599 11.9807 6.03401L16.9999 11.0908C17.1273 11.2188 17.1273 11.4263 16.9999 11.5543ZM20.2299 20.0526H13.5955C13.1703 20.0526 12.8253 19.7057 12.8253 19.2783C12.8253 18.8509 13.1703 18.504 13.5955 18.504H20.2299C20.655 18.504 21 18.8509 21 19.2783C21 19.7057 20.655 20.0526 20.2299 20.0526Z" fill="white"/>
</g>
</g>
</svg>
