<svg width="24" height="24" viewBox="0 0 24 24" fill="none" xmlns="http://www.w3.org/2000/svg">
<path d="M3 7C3 5.34315 4.34315 4 6 4H11.5C12.8807 4 14 5.11929 14 6.5V8C14 8.55228 13.5523 9 13 9C12.4477 9 12 8.55228 12 8V7.5C12 6.67157 11.3284 6 10.5 6H7C5.89543 6 5 6.89543 5 8V16C5 17.1046 5.89543 18 7 18H10.5C11.3284 18 12 17.3284 12 16.5V16C12 15.4477 12.4477 15 13 15C13.5523 15 14 15.4477 14 16V17.5C14 18.8807 12.8807 20 11.5 20H6C4.34315 20 3 18.6569 3 17V7Z" fill="#CEE8FD"/>
<path d="M20 13C20.5523 13 21 12.5523 21 12C21 11.4477 20.5523 11 20 11L20 13ZM10 11C9.44772 11 9 11.4477 9 12C9 12.5523 9.44772 13 10 13L10 11ZM20 11L10 11L10 13L20 13L20 11Z" fill="#CEE8FD"/>
<path d="M16.2929 8.70711C15.9024 8.31658 15.9024 7.68342 16.2929 7.29289C16.6834 6.90237 17.3166 6.90237 17.7071 7.29289L16.2929 8.70711ZM17.7071 16.7071C17.3166 17.0976 16.6834 17.0976 16.2929 16.7071C15.9024 16.3166 15.9024 15.6834 16.2929 15.2929L17.7071 16.7071ZM21 12L21.7071 11.2929C21.8946 11.4804 22 11.7348 22 12C22 12.2652 21.8946 12.5196 21.7071 12.7071L21 12ZM17.7071 7.29289L21.7071 11.2929L20.2929 12.7071L16.2929 8.70711L17.7071 7.29289ZM21.7071 12.7071L17.7071 16.7071L16.2929 15.2929L20.2929 11.2929L21.7071 12.7071Z" fill="#CEE8FD"/>
</svg>
