<svg width="24" height="24" viewBox="0 0 24 24" fill="none" xmlns="http://www.w3.org/2000/svg">
<g id="ic_calendar_24px">
<g id="Calendar" opacity="0.8">
<path id="Calendar_2" fill-rule="evenodd" clip-rule="evenodd" d="M16.4109 2.76862L16.4119 3.51824C19.1665 3.73413 20.9862 5.61119 20.9891 8.48975L21 16.9155C21.0039 20.054 19.0322 21.985 15.8718 21.99L8.15188 22C5.01119 22.004 3.01482 20.027 3.01087 16.8795L3.00001 8.55272C2.99606 5.65517 4.75153 3.78311 7.50617 3.53024L7.50518 2.78061C7.5042 2.34083 7.83001 2.01 8.26444 2.01C8.69886 2.009 9.02468 2.33883 9.02567 2.77861L9.02666 3.47826L14.8914 3.47027L14.8904 2.77062C14.8894 2.33084 15.2152 2.001 15.6497 2C16.0742 1.999 16.4099 2.32884 16.4109 2.76862ZM4.52148 8.86157L19.4696 8.84158V8.49175C19.4272 6.34283 18.349 5.21539 16.4138 5.04748L16.4148 5.81709C16.4148 6.24688 16.0801 6.5877 15.6556 6.5877C15.2212 6.5887 14.8943 6.24887 14.8943 5.81909L14.8934 5.0095L9.02863 5.01749L9.02962 5.82609C9.02962 6.25687 8.70479 6.5967 8.27036 6.5967C7.83594 6.5977 7.50913 6.25887 7.50913 5.82809L7.50815 5.05847C5.58286 5.25137 4.51753 6.38281 4.52049 8.55072L4.52148 8.86157ZM6.99998 12C6.44769 12 5.99998 12.4477 5.99998 13C5.99998 13.5523 6.44769 14 6.99998 14H7.99998C8.55226 14 8.99998 13.5523 8.99998 13C8.99998 12.4477 8.55226 12 7.99998 12H6.99998ZM10.5 17C10.5 16.4477 10.9477 16 11.5 16H12.5C13.0523 16 13.5 16.4477 13.5 17C13.5 17.5523 13.0523 18 12.5 18H11.5C10.9477 18 10.5 17.5523 10.5 17ZM11.5 12C10.9477 12 10.5 12.4477 10.5 13C10.5 13.5523 10.9477 14 11.5 14H12.5C13.0523 14 13.5 13.5523 13.5 13C13.5 12.4477 13.0523 12 12.5 12H11.5ZM15 17C15 16.4477 15.4477 16 16 16H17C17.5523 16 18 16.4477 18 17C18 17.5523 17.5523 18 17 18H16C15.4477 18 15 17.5523 15 17ZM16 12C15.4477 12 15 12.4477 15 13C15 13.5523 15.4477 14 16 14H17C17.5523 14 18 13.5523 18 13C18 12.4477 17.5523 12 17 12H16ZM5.99998 17C5.99998 16.4477 6.44769 16 6.99998 16H7.99998C8.55226 16 8.99998 16.4477 8.99998 17C8.99998 17.5523 8.55226 18 7.99998 18H6.99998C6.44769 18 5.99998 17.5523 5.99998 17Z" fill="white"/>
</g>
</g>
</svg>
