<svg width="16" height="22" viewBox="0 0 16 22" fill="none" xmlns="http://www.w3.org/2000/svg">
<path fill-rule="evenodd" clip-rule="evenodd" d="M8 0C5.79086 0 4 1.79086 4 4V11C4 13.2091 5.79086 15 8 15C10.2091 15 12 13.2091 12 11V4C12 1.79086 10.2091 0 8 0ZM2.5 10C2.5 9.44771 2.05228 9 1.5 9C0.947715 9 0.5 9.44771 0.5 10V11C0.5 14.8031 3.33064 17.945 7 18.4339V20H4C3.44772 20 3 20.4477 3 21C3 21.5523 3.44772 22 4 22H8H12C12.5523 22 13 21.5523 13 21C13 20.4477 12.5523 20 12 20H9V18.4339C12.6694 17.945 15.5 14.8031 15.5 11V10C15.5 9.44771 15.0523 9 14.5 9C13.9477 9 13.5 9.44771 13.5 10V11C13.5 14.0376 11.0376 16.5 8 16.5C4.96243 16.5 2.5 14.0376 2.5 11V10Z" fill="#0672C3"/>
</svg>
