<svg width="22" height="22" viewBox="0 0 22 22" fill="none" xmlns="http://www.w3.org/2000/svg">
<path fill-rule="evenodd" clip-rule="evenodd" d="M14.465 2.1888C13.7351 2.1888 13.0351 2.47875 12.519 2.99486L4.09482 11.419C3.23471 12.2791 2.7515 13.4457 2.7515 14.6621C2.7515 15.8785 3.23471 17.045 4.09482 17.9052C4.95494 18.7653 6.12151 19.2485 7.33789 19.2485C8.55428 19.2485 9.72085 18.7653 10.581 17.9052L19.0051 9.48099C19.3631 9.12301 19.9435 9.12301 20.3015 9.48099C20.6595 9.83897 20.6595 10.4194 20.3015 10.7774L11.8773 19.2015C10.6734 20.4055 9.04051 21.0818 7.33789 21.0818C5.63528 21.0818 4.00239 20.4055 2.79846 19.2015C1.59453 17.9976 0.918167 16.3647 0.918167 14.6621C0.918167 12.9595 1.59453 11.3266 2.79846 10.1227L11.2226 1.69849C12.0826 0.838569 13.2489 0.355469 14.465 0.355469C15.6811 0.355469 16.8474 0.838569 17.7073 1.69849C18.5672 2.55842 19.0503 3.72472 19.0503 4.94084C19.0503 6.15696 18.5672 7.32326 17.7073 8.18319L9.27399 16.6074C8.75808 17.1233 8.05834 17.4131 7.32873 17.4131C6.59911 17.4131 5.89938 17.1233 5.38346 16.6074C4.86755 16.0914 4.57771 15.3917 4.57771 14.6621C4.57771 13.9325 4.86755 13.2327 5.38346 12.7168L13.1663 4.94311C13.5245 4.58534 14.1049 4.58568 14.4627 4.94387C14.8205 5.30207 14.8201 5.88247 14.4619 6.24024L6.67982 14.0132C6.50796 14.1853 6.41104 14.4189 6.41104 14.6621C6.41104 14.9055 6.50772 15.1389 6.67982 15.311C6.85192 15.4831 7.08534 15.5798 7.32873 15.5798C7.57211 15.5798 7.80553 15.4831 7.97763 15.311L16.411 6.88683C16.9268 6.37075 17.217 5.67056 17.217 4.94084C17.217 4.21095 16.9271 3.51096 16.411 2.99486C15.8949 2.47875 15.1949 2.1888 14.465 2.1888Z" fill="#B4B4B4"/>
</svg>
