<svg width="40" height="40" viewBox="0 0 40 40" fill="none" xmlns="http://www.w3.org/2000/svg">
<path d="M2.43934 19.1688C1.85355 18.5831 1.85355 17.6333 2.43934 17.0475C3.02513 16.4617 3.97487 16.4617 4.56066 17.0475L17.4652 29.952C18.051 30.5378 18.051 31.4876 17.4652 32.0734C16.8794 32.6592 15.9297 32.6592 15.3439 32.0734L2.43934 19.1688Z" fill="white"/>
<path d="M17.4652 32.0734C16.8794 32.6592 15.9297 32.6592 15.3439 32.0734C14.7581 31.4876 14.7579 30.5381 15.3437 29.9524L35.5115 9.78456C36.0973 9.19877 37.047 9.19877 37.6328 9.78455C38.2186 10.3703 38.2186 11.3201 37.6328 11.9059L17.4652 32.0734Z" fill="white"/>
</svg>
