<svg width="22" height="22" viewBox="0 0 22 22" fill="none" xmlns="http://www.w3.org/2000/svg">
<path fill-rule="evenodd" clip-rule="evenodd" d="M14.465 2.1888C13.7351 2.1888 13.0351 2.47875 12.519 2.99486L4.09487 11.419C3.23475 12.2791 2.75155 13.4457 2.75155 14.6621C2.75155 15.8785 3.23475 17.045 4.09487 17.9052C4.95498 18.7653 6.12155 19.2485 7.33794 19.2485C8.55433 19.2485 9.72089 18.7653 10.581 17.9052L19.0052 9.48099C19.3632 9.12301 19.9436 9.12301 20.3015 9.48099C20.6595 9.83897 20.6595 10.4194 20.3015 10.7774L11.8774 19.2015C10.6734 20.4055 9.04056 21.0818 7.33794 21.0818C5.63532 21.0818 4.00244 20.4055 2.79851 19.2015C1.59457 17.9976 0.918213 16.3647 0.918213 14.6621C0.918213 12.9595 1.59457 11.3266 2.79851 10.1227L11.2227 1.69849C12.0826 0.838569 13.2489 0.355469 14.465 0.355469C15.6811 0.355469 16.8474 0.838569 17.7074 1.69849C18.5673 2.55842 19.0504 3.72472 19.0504 4.94084C19.0504 6.15696 18.5673 7.32326 17.7074 8.18319L9.27404 16.6074C8.75812 17.1233 8.05839 17.4131 7.32877 17.4131C6.59915 17.4131 5.89942 17.1233 5.38351 16.6074C4.86759 16.0914 4.57775 15.3917 4.57775 14.6621C4.57775 13.9325 4.86759 13.2327 5.38351 12.7168L13.1664 4.94311C13.5246 4.58534 14.105 4.58568 14.4628 4.94387C14.8205 5.30207 14.8202 5.88247 14.462 6.24024L6.67987 14.0132C6.50801 14.1853 6.41109 14.4189 6.41109 14.6621C6.41109 14.9055 6.50777 15.1389 6.67987 15.311C6.85197 15.4831 7.08539 15.5798 7.32877 15.5798C7.57216 15.5798 7.80557 15.4831 7.97767 15.311L16.411 6.88683C16.9269 6.37075 17.2171 5.67056 17.2171 4.94084C17.2171 4.21095 16.9271 3.51096 16.411 2.99486C15.8949 2.47875 15.1949 2.1888 14.465 2.1888Z" fill="#B4B4B4"/>
</svg>
