<svg width="19" height="20" viewBox="0 0 19 20" fill="none" xmlns="http://www.w3.org/2000/svg">
<path fill-rule="evenodd" clip-rule="evenodd" d="M13.3837 9.83333H4.94874C4.51707 9.83333 4.1104 9.64333 3.8329 9.31333C3.55457 8.98333 3.43791 8.55 3.51207 8.125L4.88874 1.20833C5.01041 0.508333 5.61457 0 6.3254 0H12.0062C12.7179 0 13.3221 0.508333 13.4429 1.20917L14.8196 8.12583C14.8937 8.55083 14.7771 8.98417 14.4987 9.31417C14.2221 9.64333 13.8154 9.83333 13.3837 9.83333ZM3.33333 16.2493V16.2506C3.31111 16.2506 3.28899 16.2502 3.26698 16.2493H3.125C3.0147 16.2493 2.91104 16.2207 2.82105 16.1705C2.15105 15.9545 1.66667 15.3261 1.66667 14.584V12.084C1.66667 11.6273 1.3 11.2448 0.843333 11.2506C0.378333 11.2565 0 10.8806 0 10.4173C0 9.95732 0.373333 9.58398 0.833333 9.58398C2.21167 9.58398 3.33333 10.7056 3.33333 12.084V12.1908C3.72976 11.8631 4.23802 11.666 4.79167 11.666H13.5417C14.0953 11.666 14.6036 11.8631 15 12.1908V12.084C15 10.7056 16.1217 9.58398 17.5 9.58398C17.96 9.58398 18.3333 9.95732 18.3333 10.4173C18.3333 10.8806 17.955 11.2565 17.49 11.2506C17.0333 11.2448 16.6667 11.6273 16.6667 12.084V14.584C16.6667 15.3261 16.1823 15.9545 15.5123 16.1705C15.4223 16.2207 15.3186 16.2493 15.2083 16.2493H15.0664C15.0443 16.2502 15.0222 16.2506 15 16.2506V16.2493H9.99871V18.334H12.7077C13.1677 18.334 13.541 18.7073 13.541 19.1673C13.541 19.6273 13.1677 20.0007 12.7077 20.0007H5.62435C5.16435 20.0007 4.79102 19.6273 4.79102 19.1673C4.79102 18.7073 5.16435 18.334 5.62435 18.334H8.33203V16.2493H3.33333Z" fill="white"/>
</svg>
