<svg width="20" height="6" viewBox="0 0 20 6" fill="none" xmlns="http://www.w3.org/2000/svg">
<path d="M1.50554 5.74991C0.949958 6.28415 0 5.90578 0 5.15025L0 0.849747C0 0.0942173 0.949958 -0.284153 1.50554 0.250087L3.74169 2.40034C4.0861 2.73152 4.0861 3.26848 3.74169 3.59966L1.50554 5.74991Z" fill="#FFB800"/>
<path d="M9.50554 5.74991C8.94996 6.28415 8 5.90578 8 5.15025V0.849747C8 0.0942173 8.94996 -0.284153 9.50554 0.250087L11.7417 2.40034C12.0861 2.73152 12.0861 3.26848 11.7417 3.59966L9.50554 5.74991Z" fill="#FFB800"/>
<path d="M17.5055 5.74991C16.95 6.28415 16 5.90578 16 5.15025V0.849747C16 0.0942173 16.95 -0.284153 17.5055 0.250087L19.7417 2.40034C20.0861 2.73152 20.0861 3.26848 19.7417 3.59966L17.5055 5.74991Z" fill="#FFB800"/>
</svg>
