<svg width="24" height="24" viewBox="0 0 24 24" fill="none" xmlns="http://www.w3.org/2000/svg">
<path fill-rule="evenodd" clip-rule="evenodd" d="M7 20.2294V20.7501C7 21.4401 6.44 22.0001 5.75 22.0001H3.25C2.56 22.0001 2 21.4401 2 20.7501V9.08008C2 8.39008 2.56 7.83008 3.25 7.83008H5.75C6.44 7.83008 7 8.39008 7 9.08008V9.19786C8.10302 8.52069 10.3398 6.90174 10.3398 4.91C10.3298 3.12 10.6098 2 11.9998 2C12.8598 2 14.4998 2.78 14.4998 5.75C14.4998 7.06 14.1898 8.06 13.9298 8.67H18.2498C19.3498 8.67 20.3998 9.15 21.1098 10C21.8198 10.84 22.1298 11.95 21.9498 13.04L20.9798 18.87C20.6798 20.69 19.1198 22 17.2798 22H15.7498C11.0524 22 8.20041 20.8528 7 20.2294ZM4.01 19.92C4.01 20.15 4.2 20.34 4.43 20.34H5.1C5.33 20.34 5.52 20.15 5.52 19.92V17.42C5.52 17.19 5.33 17 5.1 17H4.42C4.19 17 4 17.19 4 17.42V19.92H4.01Z" fill="white"/>
</svg>
