<svg width="206" height="138" viewBox="0 0 206 138" fill="none" xmlns="http://www.w3.org/2000/svg">
<path d="M45 57.25C45 54.0744 47.5744 51.5 50.75 51.5H69.5L114.5 48L137 47H150.205C151.823 47 153.21 48.1575 153.5 49.75C153.79 51.3425 155.177 52.5 156.795 52.5H165.5C167.985 52.5 170 54.5147 170 57C170 59.4853 167.985 61.5 165.5 61.5H149C146.239 61.5 144 63.7386 144 66.5C144 69.2614 146.239 71.5 149 71.5H167C169.485 71.5 171.5 73.5147 171.5 76C171.5 78.4853 169.485 80.5 167 80.5H146C142.686 80.5 140 83.1863 140 86.5C140 89.8137 142.686 92.5 146 92.5H158.25C160.873 92.5 163 94.6266 163 97.25C163 99.8734 160.873 102 158.25 102H43C40.2386 102 38 99.7614 38 97C38 94.2386 40.2386 92 43 92H51.5C54.2614 92 56.5 89.7614 56.5 87C56.5 84.2386 54.2614 82 51.5 82H40.75C38.1266 82 36 79.8734 36 77.25C36 74.6266 38.1266 72.5 40.75 72.5H60.25C62.8734 72.5 65 70.3734 65 67.75C65 65.1266 62.8734 63 60.25 63H50.75C47.5744 63 45 60.4256 45 57.25Z" fill="#EFEFEF"/>
<path d="M80 44.5371C76.5482 44.5371 73.75 47.3353 73.75 50.7871V56.7871C73.75 61.3435 77.4437 65.0371 82 65.0371H124C128.556 65.0371 132.25 61.3435 132.25 56.7871V50.9667C132.25 47.5312 129.477 44.7397 126.042 44.7169L100.25 44.5454V42.7871C100.25 41.5445 99.2426 40.5371 98 40.5371H83C81.7574 40.5371 80.75 41.5445 80.75 42.7871V44.5371H80Z" fill="#D8D8D8" stroke="#A8A8A8" stroke-width="2.5"/>
<path d="M79.25 53C79.25 50.9289 80.9289 49.25 83 49.25H123C125.071 49.25 126.75 50.9289 126.75 53V60C126.75 62.0711 125.071 63.75 123 63.75H83C80.9289 63.75 79.25 62.0711 79.25 60V53Z" fill="#F9F9F9" stroke="#A8A8A8" stroke-width="2.5"/>
<path d="M70.0298 61.555C69.6976 58.7312 71.9039 56.25 74.7473 56.25H131.253C134.096 56.25 136.302 58.7312 135.97 61.555L131.382 100.555C131.101 102.947 129.073 104.75 126.665 104.75H79.3355C76.9268 104.75 74.8995 102.947 74.618 100.555L70.0298 61.555Z" fill="#F9F9F9" stroke="#A8A8A8" stroke-width="2.5"/>
<rect x="84.1213" y="71.8787" width="2" height="8" rx="1" transform="rotate(-45 84.1213 71.8787)" fill="#A8A8A8"/>
<rect x="85.5356" y="77.5356" width="2" height="8" rx="1" transform="rotate(-135 85.5356 77.5356)" fill="#A8A8A8"/>
<rect x="117.778" y="71.5354" width="2" height="8" rx="1" transform="rotate(-45 117.778 71.5354)" fill="#A8A8A8"/>
<rect x="119.192" y="77.1924" width="2" height="8" rx="1" transform="rotate(-135 119.192 77.1924)" fill="#A8A8A8"/>
<path d="M106.907 88.5C106.907 90.6566 105.371 92.25 103.657 92.25C101.942 92.25 100.407 90.6566 100.407 88.5C100.407 86.3434 101.942 84.75 103.657 84.75C105.371 84.75 106.907 86.3434 106.907 88.5Z" fill="#D8D8D8" stroke="#A8A8A8" stroke-width="1.5"/>
<rect x="78" y="60" width="10" height="2" rx="1" fill="#DFD9DC"/>
<rect x="91" y="60" width="6" height="2" rx="1" fill="#DFD9DC"/>
<rect x="99" y="60" width="9" height="2" rx="1" fill="#DFD9DC"/>
<rect x="105" y="26" width="2" height="8" rx="1" fill="#F2994A"/>
<rect x="102" y="31" width="2" height="8" rx="1" transform="rotate(-90 102 31)" fill="#F2994A"/>
<rect x="144.465" y="48.8787" width="2" height="8" rx="1" transform="rotate(-45 144.465 48.8787)" fill="#C4C4C4"/>
<rect x="145.879" y="54.5356" width="2" height="8" rx="1" transform="rotate(-135 145.879 54.5356)" fill="#C4C4C4"/>
<rect x="68.1716" y="21.5857" width="2" height="6" rx="1" transform="rotate(-45 68.1716 21.5857)" fill="#C4C4C4"/>
<rect x="69.5857" y="25.8284" width="2" height="6" rx="1" transform="rotate(-135 69.5857 25.8284)" fill="#C4C4C4"/>
<rect x="127.414" y="11.8284" width="2" height="6" rx="1" transform="rotate(-45 127.414 11.8284)" fill="#F2994A"/>
<rect x="128.828" y="16.071" width="2" height="6" rx="1" transform="rotate(-135 128.828 16.071)" fill="#F2994A"/>
<rect x="47.4143" y="42.8284" width="2" height="6" rx="1" transform="rotate(-45 47.4143 42.8284)" fill="#F2994A"/>
<rect x="48.8284" y="47.071" width="2" height="6" rx="1" transform="rotate(-135 48.8284 47.071)" fill="#F2994A"/>
<circle cx="51" cy="20" r="3" fill="#C4C4C4"/>
<circle cx="80" cy="3" r="3" fill="#C4C4C4"/>
<circle cx="57.5" cy="66.5" r="3.5" fill="#F2994A"/>
<circle cx="111.5" cy="12.5" r="2.5" fill="#C4C4C4"/>
<circle cx="132.5" cy="37.5" r="1.5" fill="#C4C4C4"/>
<circle cx="91.5" cy="15.5" r="1.5" fill="#F2994A"/>
<circle cx="145.5" cy="28.5" r="3.5" fill="#F2994A"/>
<path d="M8.72559 131.842C8.60254 132.895 8.21289 133.708 7.55664 134.282C6.90495 134.852 6.03678 135.137 4.95215 135.137C3.77637 135.137 2.83301 134.715 2.12207 133.872C1.41569 133.029 1.0625 131.901 1.0625 130.488V129.531C1.0625 128.606 1.22656 127.793 1.55469 127.091C1.88737 126.389 2.35677 125.851 2.96289 125.478C3.56901 125.099 4.27083 124.91 5.06836 124.91C6.12565 124.91 6.97331 125.206 7.61133 125.799C8.24935 126.387 8.62077 127.202 8.72559 128.246H7.40625C7.29232 127.453 7.04395 126.879 6.66113 126.523C6.28288 126.168 5.75195 125.99 5.06836 125.99C4.22982 125.99 3.57129 126.3 3.09277 126.92C2.61882 127.54 2.38184 128.422 2.38184 129.565V130.529C2.38184 131.609 2.60742 132.468 3.05859 133.106C3.50977 133.744 4.14095 134.063 4.95215 134.063C5.68132 134.063 6.23958 133.899 6.62695 133.571C7.01888 133.239 7.27865 132.662 7.40625 131.842H8.72559ZM11.5898 128.499C12.1504 127.811 12.8796 127.467 13.7773 127.467C15.3405 127.467 16.1289 128.349 16.1426 130.112V135H14.8779V130.105C14.8734 129.572 14.7503 129.178 14.5088 128.923C14.2718 128.668 13.9004 128.54 13.3945 128.54C12.9844 128.54 12.6243 128.649 12.3145 128.868C12.0046 129.087 11.763 129.374 11.5898 129.729V135H10.3252V124.5H11.5898V128.499ZM25.9316 127.016C25.9316 127.836 25.763 128.415 25.4258 128.752C25.0931 129.085 24.5622 129.26 23.833 129.278V135H22.6299L22.6025 134.269C22.1104 134.847 21.388 135.137 20.4355 135.137C19.6471 135.137 19.0456 134.909 18.6309 134.453C18.2207 133.993 18.0133 133.314 18.0088 132.416V127.604H19.2734V132.382C19.2734 133.503 19.7292 134.063 20.6406 134.063C21.6068 134.063 22.2493 133.703 22.5684 132.983V127.604H23.833V128.499C24.1429 128.49 24.3753 128.447 24.5303 128.369C24.6852 128.287 24.7946 128.164 24.8584 128C24.9268 127.836 24.9609 127.508 24.9609 127.016H25.9316ZM31.2705 135C31.1976 134.854 31.1383 134.594 31.0928 134.221C30.5049 134.831 29.8031 135.137 28.9873 135.137C28.2581 135.137 27.6589 134.932 27.1895 134.521C26.7246 134.107 26.4922 133.583 26.4922 132.949C26.4922 132.179 26.7839 131.582 27.3672 131.158C27.9551 130.73 28.7799 130.516 29.8418 130.516H31.0723V129.935C31.0723 129.493 30.9401 129.142 30.6758 128.882C30.4115 128.618 30.0218 128.485 29.5068 128.485C29.0557 128.485 28.6774 128.599 28.3721 128.827C28.0667 129.055 27.9141 129.331 27.9141 129.654H26.6426C26.6426 129.285 26.7725 128.93 27.0322 128.588C27.2965 128.242 27.652 127.968 28.0986 127.768C28.5498 127.567 29.0443 127.467 29.582 127.467C30.4342 127.467 31.1019 127.681 31.585 128.109C32.068 128.533 32.3187 129.119 32.3369 129.866V133.271C32.3369 133.95 32.4235 134.49 32.5967 134.891V135H31.2705ZM29.1719 134.036C29.5684 134.036 29.9443 133.934 30.2998 133.729C30.6553 133.523 30.9128 133.257 31.0723 132.929V131.411H30.0811C28.5316 131.411 27.7568 131.865 27.7568 132.771C27.7568 133.168 27.889 133.478 28.1533 133.701C28.4176 133.924 28.7572 134.036 29.1719 134.036ZM40.7588 134.104C41.21 134.104 41.6042 133.968 41.9414 133.694C42.2786 133.421 42.4655 133.079 42.502 132.669H43.6982C43.6755 133.093 43.5296 133.496 43.2607 133.879C42.9919 134.262 42.6318 134.567 42.1807 134.795C41.734 135.023 41.2601 135.137 40.7588 135.137C39.7516 135.137 38.9495 134.802 38.3525 134.132C37.7601 133.457 37.4639 132.537 37.4639 131.37V131.158C37.4639 130.438 37.596 129.798 37.8604 129.237C38.1247 128.677 38.5029 128.242 38.9951 127.932C39.4919 127.622 40.0775 127.467 40.752 127.467C41.5814 127.467 42.2695 127.715 42.8164 128.212C43.3678 128.709 43.6618 129.354 43.6982 130.146H42.502C42.4655 129.668 42.2832 129.276 41.9551 128.971C41.6315 128.661 41.2305 128.506 40.752 128.506C40.1094 128.506 39.6104 128.738 39.2549 129.203C38.904 129.663 38.7285 130.331 38.7285 131.206V131.445C38.7285 132.298 38.904 132.954 39.2549 133.414C39.6058 133.874 40.1071 134.104 40.7588 134.104ZM44.7852 131.233C44.7852 130.509 44.9264 129.857 45.209 129.278C45.4961 128.7 45.8926 128.253 46.3984 127.938C46.9089 127.624 47.4899 127.467 48.1416 127.467C49.1488 127.467 49.9622 127.815 50.582 128.513C51.2064 129.21 51.5186 130.137 51.5186 131.295V131.384C51.5186 132.104 51.3796 132.751 51.1016 133.325C50.8281 133.895 50.4339 134.339 49.9189 134.658C49.4085 134.977 48.8206 135.137 48.1553 135.137C47.1527 135.137 46.3392 134.788 45.7148 134.091C45.0951 133.394 44.7852 132.471 44.7852 131.322V131.233ZM46.0566 131.384C46.0566 132.204 46.2458 132.863 46.624 133.359C47.0068 133.856 47.5173 134.104 48.1553 134.104C48.7979 134.104 49.3083 133.854 49.6865 133.353C50.0648 132.847 50.2539 132.14 50.2539 131.233C50.2539 130.422 50.0602 129.766 49.6729 129.265C49.29 128.759 48.7796 128.506 48.1416 128.506C47.5173 128.506 47.0137 128.754 46.6309 129.251C46.248 129.748 46.0566 130.459 46.0566 131.384ZM48.7158 124.5H50.2471L48.415 126.51H47.3965L48.7158 124.5ZM58.293 125.812V127.604H59.6738V128.581H58.293V133.168C58.293 133.464 58.3545 133.688 58.4775 133.838C58.6006 133.984 58.8102 134.057 59.1064 134.057C59.2523 134.057 59.4528 134.029 59.708 133.975V135C59.3753 135.091 59.0518 135.137 58.7373 135.137C58.1722 135.137 57.7461 134.966 57.459 134.624C57.1719 134.282 57.0283 133.797 57.0283 133.168V128.581H55.6816V127.604H57.0283V125.812H58.293ZM65.7236 135C65.6507 134.854 65.5915 134.594 65.5459 134.221C64.958 134.831 64.2562 135.137 63.4404 135.137C62.7113 135.137 62.112 134.932 61.6426 134.521C61.1777 134.107 60.9453 133.583 60.9453 132.949C60.9453 132.179 61.237 131.582 61.8203 131.158C62.4082 130.73 63.2331 130.516 64.2949 130.516H65.5254V129.935C65.5254 129.493 65.3932 129.142 65.1289 128.882C64.8646 128.618 64.4749 128.485 63.96 128.485C63.5088 128.485 63.1305 128.599 62.8252 128.827C62.5199 129.055 62.3672 129.331 62.3672 129.654H61.0957C61.0957 129.285 61.2256 128.93 61.4854 128.588C61.7497 128.242 62.1051 127.968 62.5518 127.768C63.0029 127.567 63.4974 127.467 64.0352 127.467C64.8874 127.467 65.555 127.681 66.0381 128.109C66.5212 128.533 66.7718 129.119 66.79 129.866V133.271C66.79 133.95 66.8766 134.49 67.0498 134.891V135H65.7236ZM63.625 134.036C64.0215 134.036 64.3975 133.934 64.7529 133.729C65.1084 133.523 65.3659 133.257 65.5254 132.929V131.411H64.5342C62.9847 131.411 62.21 131.865 62.21 132.771C62.21 133.168 62.3421 133.478 62.6064 133.701C62.8708 133.924 63.2103 134.036 63.625 134.036ZM64.8965 126.51H63.8096L62.0459 124.5H63.5703L64.8965 126.51ZM70.1465 135H68.8818V127.604H70.1465V135ZM68.7793 125.642C68.7793 125.437 68.8408 125.263 68.9639 125.122C69.0915 124.981 69.2783 124.91 69.5244 124.91C69.7705 124.91 69.9574 124.981 70.085 125.122C70.2126 125.263 70.2764 125.437 70.2764 125.642C70.2764 125.847 70.2126 126.018 70.085 126.154C69.9574 126.291 69.7705 126.359 69.5244 126.359C69.2783 126.359 69.0915 126.291 68.9639 126.154C68.8408 126.018 68.7793 125.847 68.7793 125.642ZM77.0234 135H75.7588V124.5H77.0234V135ZM80.4277 135H79.1631V127.604H80.4277V135ZM79.0605 125.642C79.0605 125.437 79.1221 125.263 79.2451 125.122C79.3727 124.981 79.5596 124.91 79.8057 124.91C80.0518 124.91 80.2386 124.981 80.3662 125.122C80.4938 125.263 80.5576 125.437 80.5576 125.642C80.5576 125.847 80.4938 126.018 80.3662 126.154C80.2386 126.291 80.0518 126.359 79.8057 126.359C79.5596 126.359 79.3727 126.291 79.2451 126.154C79.1221 126.018 79.0605 125.847 79.0605 125.642ZM85.5273 135.137C84.5247 135.137 83.709 134.809 83.0801 134.152C82.4512 133.492 82.1367 132.61 82.1367 131.507V131.274C82.1367 130.541 82.2757 129.887 82.5537 129.312C82.8363 128.734 83.2282 128.283 83.7295 127.959C84.2354 127.631 84.7822 127.467 85.3701 127.467C86.3317 127.467 87.0791 127.784 87.6123 128.417C88.1455 129.05 88.4121 129.957 88.4121 131.138V131.664H83.4014C83.4196 132.393 83.6315 132.983 84.0371 133.435C84.4473 133.881 84.9668 134.104 85.5957 134.104C86.0423 134.104 86.4206 134.013 86.7305 133.831C87.0404 133.649 87.3115 133.407 87.5439 133.106L88.3164 133.708C87.6966 134.66 86.7669 135.137 85.5273 135.137ZM85.3701 128.506C84.8597 128.506 84.4313 128.693 84.085 129.066C83.7386 129.436 83.5244 129.955 83.4424 130.625H87.1475V130.529C87.111 129.887 86.9378 129.39 86.6279 129.039C86.318 128.684 85.8988 128.506 85.3701 128.506ZM87.4346 126.373V126.441H86.3887L85.3633 125.279L84.3447 126.441H83.2988V126.359L84.9805 124.5H85.7461L87.4346 126.373ZM84.5908 136.675C84.5908 136.47 84.6523 136.297 84.7754 136.155C84.903 136.014 85.0898 135.943 85.3359 135.943C85.582 135.943 85.7689 136.014 85.8965 136.155C86.0241 136.297 86.0879 136.47 86.0879 136.675C86.0879 136.88 86.0241 137.051 85.8965 137.188C85.7689 137.324 85.582 137.393 85.3359 137.393C85.0898 137.393 84.903 137.324 84.7754 137.188C84.6523 137.051 84.5908 136.88 84.5908 136.675ZM94.4482 134.269C93.9561 134.847 93.2337 135.137 92.2812 135.137C91.4928 135.137 90.8913 134.909 90.4766 134.453C90.0664 133.993 89.859 133.314 89.8545 132.416V127.604H91.1191V132.382C91.1191 133.503 91.5749 134.063 92.4863 134.063C93.4525 134.063 94.0951 133.703 94.4141 132.983V127.604H95.6787V135H94.4756L94.4482 134.269ZM104.046 134.104C104.497 134.104 104.891 133.968 105.229 133.694C105.566 133.421 105.753 133.079 105.789 132.669H106.985C106.963 133.093 106.817 133.496 106.548 133.879C106.279 134.262 105.919 134.567 105.468 134.795C105.021 135.023 104.547 135.137 104.046 135.137C103.039 135.137 102.237 134.802 101.64 134.132C101.047 133.457 100.751 132.537 100.751 131.37V131.158C100.751 130.438 100.883 129.798 101.147 129.237C101.412 128.677 101.79 128.242 102.282 127.932C102.779 127.622 103.365 127.467 104.039 127.467C104.868 127.467 105.557 127.715 106.104 128.212C106.655 128.709 106.949 129.354 106.985 130.146H105.789C105.753 129.668 105.57 129.276 105.242 128.971C104.919 128.661 104.518 128.506 104.039 128.506C103.396 128.506 102.897 128.738 102.542 129.203C102.191 129.663 102.016 130.331 102.016 131.206V131.445C102.016 132.298 102.191 132.954 102.542 133.414C102.893 133.874 103.394 134.104 104.046 134.104ZM109.672 128.499C110.232 127.811 110.962 127.467 111.859 127.467C113.423 127.467 114.211 128.349 114.225 130.112V135H112.96V130.105C112.955 129.572 112.832 129.178 112.591 128.923C112.354 128.668 111.982 128.54 111.477 128.54C111.066 128.54 110.706 128.649 110.396 128.868C110.087 129.087 109.845 129.374 109.672 129.729V135H108.407V124.5H109.672V128.499ZM115.783 131.233C115.783 130.509 115.924 129.857 116.207 129.278C116.494 128.7 116.891 128.253 117.396 127.938C117.907 127.624 118.488 127.467 119.14 127.467C120.147 127.467 120.96 127.815 121.58 128.513C122.204 129.21 122.517 130.137 122.517 131.295V131.384C122.517 132.104 122.378 132.751 122.1 133.325C121.826 133.895 121.432 134.339 120.917 134.658C120.407 134.977 119.819 135.137 119.153 135.137C118.151 135.137 117.337 134.788 116.713 134.091C116.093 133.394 115.783 132.471 115.783 131.322V131.233ZM117.055 131.384C117.055 132.204 117.244 132.863 117.622 133.359C118.005 133.856 118.515 134.104 119.153 134.104C119.796 134.104 120.306 133.854 120.685 133.353C121.063 132.847 121.252 132.14 121.252 131.233C121.252 130.422 121.058 129.766 120.671 129.265C120.288 128.759 119.778 128.506 119.14 128.506C118.515 128.506 118.012 128.754 117.629 129.251C117.246 129.748 117.055 130.459 117.055 131.384ZM128.771 127.604L128.812 128.533C129.378 127.822 130.116 127.467 131.027 127.467C132.59 127.467 133.379 128.349 133.393 130.112V135H132.128V130.105C132.123 129.572 132 129.178 131.759 128.923C131.522 128.668 131.15 128.54 130.645 128.54C130.234 128.54 129.874 128.649 129.564 128.868C129.255 129.087 129.013 129.374 128.84 129.729V135H127.575V127.604H128.771ZM134.965 131.233C134.965 130.509 135.106 129.857 135.389 129.278C135.676 128.7 136.072 128.253 136.578 127.938C137.089 127.624 137.67 127.467 138.321 127.467C139.328 127.467 140.142 127.815 140.762 128.513C141.386 129.21 141.698 130.137 141.698 131.295V131.384C141.698 132.104 141.559 132.751 141.281 133.325C141.008 133.895 140.614 134.339 140.099 134.658C139.588 134.977 139 135.137 138.335 135.137C137.332 135.137 136.519 134.788 135.895 134.091C135.275 133.394 134.965 132.471 134.965 131.322V131.233ZM136.236 131.384C136.236 132.204 136.425 132.863 136.804 133.359C137.187 133.856 137.697 134.104 138.335 134.104C138.978 134.104 139.488 133.854 139.866 133.353C140.244 132.847 140.434 132.14 140.434 131.233C140.434 130.422 140.24 129.766 139.853 129.265C139.47 128.759 138.959 128.506 138.321 128.506C137.697 128.506 137.193 128.754 136.811 129.251C136.428 129.748 136.236 130.459 136.236 131.384ZM140.345 126.373V126.441H139.299L138.273 125.279L137.255 126.441H136.209V126.359L137.891 124.5H138.656L140.345 126.373ZM137.549 136.675C137.549 136.47 137.61 136.297 137.733 136.155C137.861 136.014 138.048 135.943 138.294 135.943C138.54 135.943 138.727 136.014 138.854 136.155C138.982 136.297 139.046 136.47 139.046 136.675C139.046 136.88 138.982 137.051 138.854 137.188C138.727 137.324 138.54 137.393 138.294 137.393C138.048 137.393 137.861 137.324 137.733 137.188C137.61 137.051 137.549 136.88 137.549 136.675ZM144.658 135H143.394V127.604H144.658V135ZM143.291 125.642C143.291 125.437 143.353 125.263 143.476 125.122C143.603 124.981 143.79 124.91 144.036 124.91C144.282 124.91 144.469 124.981 144.597 125.122C144.724 125.263 144.788 125.437 144.788 125.642C144.788 125.847 144.724 126.018 144.597 126.154C144.469 126.291 144.282 126.359 144.036 126.359C143.79 126.359 143.603 126.291 143.476 126.154C143.353 126.018 143.291 125.847 143.291 125.642ZM149.854 131.24C149.854 130.105 150.122 129.194 150.66 128.506C151.198 127.813 151.902 127.467 152.772 127.467C153.638 127.467 154.324 127.763 154.83 128.355V124.5H156.095V135H154.933L154.871 134.207C154.365 134.827 153.661 135.137 152.759 135.137C151.902 135.137 151.202 134.786 150.66 134.084C150.122 133.382 149.854 132.466 149.854 131.336V131.24ZM151.118 131.384C151.118 132.222 151.291 132.879 151.638 133.353C151.984 133.826 152.463 134.063 153.073 134.063C153.875 134.063 154.461 133.703 154.83 132.983V129.586C154.452 128.889 153.871 128.54 153.087 128.54C152.467 128.54 151.984 128.779 151.638 129.258C151.291 129.736 151.118 130.445 151.118 131.384ZM162.63 134.269C162.138 134.847 161.415 135.137 160.463 135.137C159.674 135.137 159.073 134.909 158.658 134.453C158.248 133.993 158.041 133.314 158.036 132.416V127.604H159.301V132.382C159.301 133.503 159.757 134.063 160.668 134.063C161.634 134.063 162.277 133.703 162.596 132.983V127.604H163.86V135H162.657L162.63 134.269ZM166.984 127.604L167.025 128.533C167.59 127.822 168.329 127.467 169.24 127.467C170.803 127.467 171.592 128.349 171.605 130.112V135H170.341V130.105C170.336 129.572 170.213 129.178 169.972 128.923C169.735 128.668 169.363 128.54 168.857 128.54C168.447 128.54 168.087 128.649 167.777 128.868C167.467 129.087 167.226 129.374 167.053 129.729V135H165.788V127.604H166.984ZM173.212 131.24C173.212 130.087 173.479 129.171 174.012 128.492C174.545 127.809 175.251 127.467 176.131 127.467C177.033 127.467 177.737 127.786 178.243 128.424L178.305 127.604H179.46V134.822C179.46 135.779 179.175 136.534 178.605 137.085C178.04 137.636 177.279 137.912 176.322 137.912C175.789 137.912 175.267 137.798 174.757 137.57C174.246 137.342 173.857 137.03 173.588 136.634L174.244 135.875C174.786 136.545 175.45 136.88 176.233 136.88C176.849 136.88 177.327 136.707 177.669 136.36C178.015 136.014 178.188 135.526 178.188 134.897V134.262C177.683 134.845 176.992 135.137 176.117 135.137C175.251 135.137 174.549 134.788 174.012 134.091C173.479 133.394 173.212 132.443 173.212 131.24ZM174.483 131.384C174.483 132.218 174.654 132.874 174.996 133.353C175.338 133.826 175.816 134.063 176.432 134.063C177.229 134.063 177.815 133.701 178.188 132.977V129.6C177.801 128.893 177.22 128.54 176.445 128.54C175.83 128.54 175.349 128.779 175.003 129.258C174.657 129.736 174.483 130.445 174.483 131.384ZM186.043 127.604L186.084 128.533C186.649 127.822 187.387 127.467 188.299 127.467C189.862 127.467 190.65 128.349 190.664 130.112V135H189.399V130.105C189.395 129.572 189.272 129.178 189.03 128.923C188.793 128.668 188.422 128.54 187.916 128.54C187.506 128.54 187.146 128.649 186.836 128.868C186.526 129.087 186.285 129.374 186.111 129.729V135H184.847V127.604H186.043ZM197.138 135C197.065 134.854 197.006 134.594 196.96 134.221C196.372 134.831 195.67 135.137 194.854 135.137C194.125 135.137 193.526 134.932 193.057 134.521C192.592 134.107 192.359 133.583 192.359 132.949C192.359 132.179 192.651 131.582 193.234 131.158C193.822 130.73 194.647 130.516 195.709 130.516H196.939V129.935C196.939 129.493 196.807 129.142 196.543 128.882C196.279 128.618 195.889 128.485 195.374 128.485C194.923 128.485 194.545 128.599 194.239 128.827C193.934 129.055 193.781 129.331 193.781 129.654H192.51C192.51 129.285 192.64 128.93 192.899 128.588C193.164 128.242 193.519 127.968 193.966 127.768C194.417 127.567 194.911 127.467 195.449 127.467C196.301 127.467 196.969 127.681 197.452 128.109C197.935 128.533 198.186 129.119 198.204 129.866V133.271C198.204 133.95 198.291 134.49 198.464 134.891V135H197.138ZM195.039 134.036C195.436 134.036 195.812 133.934 196.167 133.729C196.522 133.523 196.78 133.257 196.939 132.929V131.411H195.948C194.399 131.411 193.624 131.865 193.624 132.771C193.624 133.168 193.756 133.478 194.021 133.701C194.285 133.924 194.624 134.036 195.039 134.036ZM196.311 126.51H195.224L193.46 124.5H194.984L196.311 126.51ZM202.497 133.147L204.22 127.604H205.573L202.6 136.142C202.139 137.372 201.408 137.987 200.405 137.987L200.166 137.967L199.694 137.878V136.853L200.036 136.88C200.465 136.88 200.797 136.793 201.034 136.62C201.276 136.447 201.474 136.13 201.629 135.67L201.909 134.918L199.271 127.604H200.651L202.497 133.147Z" fill="#B4B4B4"/>
</svg>
