<svg width="44" height="44" viewBox="0 0 44 44" fill="none" xmlns="http://www.w3.org/2000/svg">
<path fill-rule="evenodd" clip-rule="evenodd" d="M7 0C3.13401 0 0 3.13401 0 7V37C0 40.866 3.13401 44 7 44H37C40.866 44 44 40.866 44 37V7C44 3.13401 40.866 0 37 0H7ZM11 17C9.89543 17 9 17.8954 9 19V34C9 35.1046 9.89543 36 11 36C12.1046 36 13 35.1046 13 34V19C13 17.8954 12.1046 17 11 17ZM20 11C20 9.89543 20.8954 9 22 9C23.1046 9 24 9.89543 24 11V34C24 35.1046 23.1046 36 22 36C20.8954 36 20 35.1046 20 34V11ZM33 23C31.8954 23 31 23.8954 31 25V34C31 35.1046 31.8954 36 33 36C34.1046 36 35 35.1046 35 34V25C35 23.8954 34.1046 23 33 23Z" fill="#D30059"/>
</svg>
