<svg width="136" height="106" viewBox="0 0 136 106" fill="none" xmlns="http://www.w3.org/2000/svg">
<path d="M9 57.25C9 54.0744 11.5744 51.5 14.75 51.5H33.5L78.5 48L101 47H114.205C115.823 47 117.21 48.1575 117.5 49.75C117.79 51.3425 119.177 52.5 120.795 52.5H129.5C131.985 52.5 134 54.5147 134 57C134 59.4853 131.985 61.5 129.5 61.5H113C110.239 61.5 108 63.7386 108 66.5C108 69.2614 110.239 71.5 113 71.5H131C133.485 71.5 135.5 73.5147 135.5 76C135.5 78.4853 133.485 80.5 131 80.5H110C106.686 80.5 104 83.1863 104 86.5C104 89.8137 106.686 92.5 110 92.5H122.25C124.873 92.5 127 94.6266 127 97.25C127 99.8734 124.873 102 122.25 102H7C4.23858 102 2 99.7614 2 97C2 94.2386 4.23858 92 7 92H15.5C18.2614 92 20.5 89.7614 20.5 87C20.5 84.2386 18.2614 82 15.5 82H4.75C2.12665 82 0 79.8734 0 77.25C0 74.6266 2.12665 72.5 4.75 72.5H24.25C26.8734 72.5 29 70.3734 29 67.75C29 65.1266 26.8734 63 24.25 63H14.75C11.5744 63 9 60.4256 9 57.25Z" fill="#E3E3E3"/>
<path d="M44 44.5372C40.5482 44.5372 37.75 47.3355 37.75 50.7872V56.7872C37.75 61.3436 41.4437 65.0372 46 65.0372H88C92.5564 65.0372 96.25 61.3436 96.25 56.7872V50.9669C96.25 47.5313 93.477 44.7398 90.0416 44.717L64.25 44.5455V42.7872C64.25 41.5446 63.2426 40.5372 62 40.5372H47C45.7574 40.5372 44.75 41.5446 44.75 42.7872V44.5372H44Z" fill="#AFBCDE" stroke="#76777C" stroke-width="2.5"/>
<path d="M43.25 53C43.25 50.9289 44.9289 49.25 47 49.25H87C89.0711 49.25 90.75 50.9289 90.75 53V60C90.75 62.0711 89.0711 63.75 87 63.75H47C44.9289 63.75 43.25 62.0711 43.25 60V53Z" fill="#F0F0F0" stroke="#76777C" stroke-width="2.5"/>
<path d="M34.0298 61.555C33.6976 58.7312 35.9039 56.25 38.7473 56.25H95.2527C98.0961 56.25 100.302 58.7312 99.9702 61.555L95.382 100.555C95.1005 102.947 93.0732 104.75 90.6645 104.75H43.3355C40.9268 104.75 38.8995 102.947 38.618 100.555L34.0298 61.555Z" fill="#F0F0F0" stroke="#76777C" stroke-width="2.5"/>
<rect x="48.1213" y="71.8787" width="2" height="8" rx="1" transform="rotate(-45 48.1213 71.8787)" fill="#76777C"/>
<rect x="49.5356" y="77.5355" width="2" height="8" rx="1" transform="rotate(-135 49.5356 77.5355)" fill="#76777C"/>
<rect x="81.7781" y="71.5355" width="2" height="8" rx="1" transform="rotate(-45 81.7781 71.5355)" fill="#76777C"/>
<rect x="83.1924" y="77.1924" width="2" height="8" rx="1" transform="rotate(-135 83.1924 77.1924)" fill="#76777C"/>
<path d="M70.9067 88.5C70.9067 90.6566 69.3711 92.25 67.6567 92.25C65.9424 92.25 64.4067 90.6566 64.4067 88.5C64.4067 86.3434 65.9424 84.75 67.6567 84.75C69.3711 84.75 70.9067 86.3434 70.9067 88.5Z" fill="#AFBCDE" stroke="#76777C" stroke-width="1.5"/>
<rect x="42" y="60" width="10" height="2" rx="1" fill="#DFD9DC"/>
<rect x="55" y="60" width="6" height="2" rx="1" fill="#DFD9DC"/>
<rect x="63" y="60" width="9" height="2" rx="1" fill="#DFD9DC"/>
<rect x="69" y="26" width="2" height="8" rx="1" fill="#F2994A"/>
<rect x="66" y="31" width="2" height="8" rx="1" transform="rotate(-90 66 31)" fill="#F2994A"/>
<rect x="108.465" y="48.8787" width="2" height="8" rx="1" transform="rotate(-45 108.465 48.8787)" fill="#C4C4C4"/>
<rect x="109.879" y="54.5355" width="2" height="8" rx="1" transform="rotate(-135 109.879 54.5355)" fill="#C4C4C4"/>
<rect x="32.1716" y="21.5858" width="2" height="6" rx="1" transform="rotate(-45 32.1716 21.5858)" fill="#C4C4C4"/>
<rect x="33.5857" y="25.8284" width="2" height="6" rx="1" transform="rotate(-135 33.5857 25.8284)" fill="#C4C4C4"/>
<rect x="91.4143" y="11.8284" width="2" height="6" rx="1" transform="rotate(-45 91.4143 11.8284)" fill="#F2994A"/>
<rect x="92.8284" y="16.0711" width="2" height="6" rx="1" transform="rotate(-135 92.8284 16.0711)" fill="#F2994A"/>
<rect x="11.4143" y="42.8284" width="2" height="6" rx="1" transform="rotate(-45 11.4143 42.8284)" fill="#F2994A"/>
<rect x="12.8284" y="47.0711" width="2" height="6" rx="1" transform="rotate(-135 12.8284 47.0711)" fill="#F2994A"/>
<circle cx="15" cy="20" r="3" fill="#C4C4C4"/>
<circle cx="44" cy="3" r="3" fill="#C4C4C4"/>
<circle cx="21.5" cy="66.5" r="3.5" fill="#F2994A"/>
<circle cx="75.5" cy="12.5" r="2.5" fill="#C4C4C4"/>
<circle cx="96.5" cy="37.5" r="1.5" fill="#C4C4C4"/>
<circle cx="55.5" cy="15.5" r="1.5" fill="#F2994A"/>
<circle cx="109.5" cy="28.5" r="3.5" fill="#F2994A"/>
</svg>
