<svg width="36" height="36" viewBox="0 0 36 36" fill="none" xmlns="http://www.w3.org/2000/svg">
<circle opacity="0.4" cx="18" cy="18" r="18" fill="#73C0FF"/>
<path fill-rule="evenodd" clip-rule="evenodd" d="M20.7365 8.76196H14.0835C12.0245 8.76196 10.2495 10.431 10.2495 12.491V23.204C10.2495 25.38 11.9085 27.115 14.0835 27.115H22.0725C24.1325 27.115 25.8015 25.265 25.8015 23.204V14.038L20.7365 8.76196Z" stroke="white" stroke-width="1.5" stroke-linecap="round" stroke-linejoin="round"/>
<path fill-rule="evenodd" clip-rule="evenodd" d="M20.4736 8.75024V11.6592C20.4736 13.0792 21.6226 14.2312 23.0416 14.2342C24.3586 14.2372 25.7056 14.2382 25.7966 14.2322" fill="white"/>
<path d="M20.4736 8.75024V11.6592C20.4736 13.0792 21.6226 14.2312 23.0416 14.2342C24.3586 14.2372 25.7056 14.2382 25.7966 14.2322" stroke="white" stroke-width="1.5" stroke-linecap="round" stroke-linejoin="round"/>
<path d="M20.2837 21.5579H14.8867" stroke="white" stroke-width="1.5" stroke-linecap="round" stroke-linejoin="round"/>
<path d="M18.2422 16.6057H14.8862" stroke="white" stroke-width="1.5" stroke-linecap="round" stroke-linejoin="round"/>
</svg>
