<svg width="31" height="24" viewBox="0 0 31 24" fill="none" xmlns="http://www.w3.org/2000/svg">
<path d="M16.5357 23.2146C14.9701 23.3952 13.4586 23.2447 12.0617 22.8352C7.41904 21.4743 4.00483 17.2051 3.94461 12.141H0.909755C0.741152 12.141 0.650828 11.9302 0.753195 11.7917L5.34161 5.54737C5.41989 5.445 5.57645 5.445 5.64871 5.54737L10.2371 11.7857C10.3395 11.9302 10.2492 12.1349 10.0806 12.1349L7.05173 12.1349C7.10592 15.4648 9.15927 18.307 12.0617 19.5294C13.1576 19.993 14.3679 20.2279 15.6384 20.1617C17.3847 20.0713 18.9924 19.415 20.2931 18.3793C20.9856 17.8253 21.9972 17.9578 22.5211 18.6743C23.0209 19.3548 22.8824 20.3062 22.22 20.83C20.6183 22.1126 18.6673 22.9677 16.5357 23.2146ZM10.7068 5.18608C12.0014 4.14435 13.6152 3.488 15.3615 3.4037C16.638 3.33746 17.8484 3.57833 18.9382 4.03596C21.8406 5.25834 23.9 8.1005 23.9482 11.4304L20.9193 11.4304C20.7507 11.4304 20.6604 11.6412 20.7628 11.7797L25.3512 18.024C25.4295 18.1264 25.586 18.1264 25.6583 18.024L30.2467 11.7857C30.3491 11.6412 30.2587 11.4364 30.0901 11.4364H27.0553C27.0011 6.37232 23.5869 2.09703 18.9382 0.74218C17.5413 0.332714 16.0298 0.188196 14.4642 0.362822C12.3326 0.603683 10.3816 1.45874 8.77991 2.74133C8.11754 3.27122 7.97904 4.21661 8.47883 4.89704C9.00271 5.60759 10.0143 5.74006 10.7068 5.18608Z" fill="#757575"/>
</svg>
