<svg width="24" height="24" viewBox="0 0 24 24" fill="none" xmlns="http://www.w3.org/2000/svg">
<path fill-rule="evenodd" clip-rule="evenodd" d="M16.3837 11.8333H7.94874C7.51707 11.8333 7.1104 11.6433 6.8329 11.3133C6.55457 10.9833 6.43791 10.55 6.51207 10.125L7.88874 3.20833C8.01041 2.50833 8.61457 2 9.3254 2H15.0062C15.7179 2 16.3221 2.50833 16.4429 3.20917L17.8196 10.1258C17.8937 10.5508 17.7771 10.9842 17.4987 11.3142C17.2221 11.6433 16.8154 11.8333 16.3837 11.8333ZM6.33333 18.2493V18.2506C6.31111 18.2506 6.28899 18.2502 6.26698 18.2493H6.125C6.0147 18.2493 5.91104 18.2207 5.82105 18.1705C5.15105 17.9545 4.66667 17.3261 4.66667 16.584V14.084C4.66667 13.6273 4.3 13.2448 3.84333 13.2506C3.37833 13.2565 3 12.8806 3 12.4173C3 11.9573 3.37333 11.584 3.83333 11.584C5.21167 11.584 6.33333 12.7056 6.33333 14.084V14.1908C6.72976 13.8631 7.23802 13.666 7.79167 13.666H16.5417C17.0953 13.666 17.6036 13.8631 18 14.1908V14.084C18 12.7056 19.1217 11.584 20.5 11.584C20.96 11.584 21.3333 11.9573 21.3333 12.4173C21.3333 12.8806 20.955 13.2565 20.49 13.2506C20.0333 13.2448 19.6667 13.6273 19.6667 14.084V16.584C19.6667 17.3261 19.1823 17.9545 18.5123 18.1705C18.4223 18.2207 18.3186 18.2493 18.2083 18.2493H18.0664C18.0443 18.2502 18.0222 18.2506 18 18.2506V18.2493H12.9987V20.334H15.7077C16.1677 20.334 16.541 20.7073 16.541 21.1673C16.541 21.6273 16.1677 22.0007 15.7077 22.0007H8.62435C8.16435 22.0007 7.79102 21.6273 7.79102 21.1673C7.79102 20.7073 8.16435 20.334 8.62435 20.334H11.332V18.2493H6.33333Z" fill="white"/>
</svg>
